<svg xmlns="http://www.w3.org/2000/svg" version="1.1" xmlns:xlink="http://www.w3.org/1999/xlink" xmlns:svgjs="http://svgjs.com/svgjs" width="1440" height="560" preserveAspectRatio="none" viewBox="0 0 1440 560"><g mask="url(&quot;#SvgjsMask1000&quot;)" fill="none"><path d="M-13.945774307861189 167.93663778538271L149.7483965760583 130.14486065561334 111.95661944628894-33.549310228306155-51.73755143763056 4.242466901463217z" fill="rgba(28, 83, 142, 0.4)" class="triangle-float3"></path><path d="M144.816,314.771C200.339,311.84,237.206,262.252,262.193,212.583C284.25,168.74,288.691,118.4,265.318,75.244C240.766,29.912,196.296,-1.387,144.816,-4.142C88.063,-7.179,29.367,12.556,-0.303,61.031C-31.123,111.384,-25.494,174.976,3.815,226.223C33.347,277.86,85.414,317.907,144.816,314.771" fill="rgba(28, 83, 142, 0.4)" class="triangle-float3"></path><path d="M-84.13 9.46 a93.59 93.59 0 1 0 187.18 0 a93.59 93.59 0 1 0 -187.18 0z" fill="rgba(28, 83, 142, 0.4)" class="triangle-float1"></path><path d="M1462.721,304.08C1522.255,306.387,1576.787,269.333,1604.787,216.743C1631.254,167.032,1621.407,108.132,1592.911,59.555C1564.805,11.644,1518.233,-23.496,1462.721,-25.433C1403.767,-27.49,1343.638,-2.113,1315.784,49.887C1289.1,99.703,1310.242,157.499,1338.524,206.426C1366.772,255.294,1406.318,301.895,1462.721,304.08" fill="rgba(28, 83, 142, 0.4)" class="triangle-float2"></path><path d="M1382.493,146.248C1411.844,144.937,1426.897,114.028,1440.569,88.023C1452.932,64.508,1463.344,38.411,1451.753,14.506C1438.771,-12.267,1412.244,-31.335,1382.493,-31.745C1352.098,-32.164,1324.31,-14.186,1309.849,12.552C1296.042,38.081,1300.823,68.144,1314.679,93.646C1329.318,120.588,1351.862,147.616,1382.493,146.248" fill="rgba(28, 83, 142, 0.4)" class="triangle-float1"></path><path d="M1308.291772967774 164.12255353005287L1473.739475473825 134.9496596820086 1444.5665816257806-30.498042824042358 1279.1188791197296-1.3251489759980757z" fill="rgba(28, 83, 142, 0.4)" class="triangle-float2"></path><path d="M-75.00940803368884 520.085932639566L57.376398572240404 623.5170604942766 160.80752642695103 491.1312538883473 28.42171982102178 387.7001260336367z" fill="rgba(28, 83, 142, 0.4)" class="triangle-float2"></path><path d="M25.462,532.622C45.728,532.742,63.313,518.657,72.168,500.428C80.048,484.206,74.661,465.88,65.403,450.403C56.451,435.438,42.892,422.858,25.462,422.346C7.217,421.81,-9.486,432.21,-18.763,447.929C-28.201,463.921,-28.893,483.422,-20.298,499.882C-10.993,517.701,5.36,532.503,25.462,532.622" fill="rgba(28, 83, 142, 0.4)" class="triangle-float1"></path><path d="M-45.1127078116777 419.1563641678852L-30.470543030071106 586.5170734472985 136.89016624934214 571.8749086656919 122.24800146773555 404.5141993862786z" fill="rgba(28, 83, 142, 0.4)" class="triangle-float1"></path><path d="M1205.51 495.81 a170.3 170.3 0 1 0 340.6 0 a170.3 170.3 0 1 0 -340.6 0z" fill="rgba(28, 83, 142, 0.4)" class="triangle-float2"></path><path d="M1343.057,507.841C1357.997,507.278,1368.134,494.789,1376.064,482.114C1384.723,468.276,1394.368,452.258,1386.924,437.73C1379.067,422.397,1360.286,417.576,1343.057,417.696C1326.074,417.814,1308.541,423.52,1300.234,438.333C1292.067,452.895,1296.68,470.561,1305.438,484.776C1313.707,498.198,1327.303,508.435,1343.057,507.841" fill="rgba(28, 83, 142, 0.4)" class="triangle-float1"></path><path d="M1221.2 480.13 a138.93 138.93 0 1 0 277.86 0 a138.93 138.93 0 1 0 -277.86 0z" fill="rgba(28, 83, 142, 0.4)" class="triangle-float1"></path></g><defs><mask id="SvgjsMask1000"><rect width="1440" height="560" fill="#ffffff"></rect></mask><style>
            @keyframes float1 {
                0%{transform: translate(0, 0)}
                50%{transform: translate(-10px, 0)}
                100%{transform: translate(0, 0)}
            }

            .triangle-float1 {
                animation: float1 5s infinite;
            }

            @keyframes float2 {
                0%{transform: translate(0, 0)}
                50%{transform: translate(-5px, -5px)}
                100%{transform: translate(0, 0)}
            }

            .triangle-float2 {
                animation: float2 4s infinite;
            }

            @keyframes float3 {
                0%{transform: translate(0, 0)}
                50%{transform: translate(0, -10px)}
                100%{transform: translate(0, 0)}
            }

            .triangle-float3 {
                animation: float3 6s infinite;
            }
        </style></defs></svg>