<svg xmlns="http://www.w3.org/2000/svg" version="1.1" xmlns:xlink="http://www.w3.org/1999/xlink" xmlns:svgjs="http://svgjs.com/svgjs" width="1440" height="560" preserveAspectRatio="none" viewBox="0 0 1440 560"><g mask="url(&quot;#SvgjsMask9367&quot;)" fill="none"><rect width="1440" height="560" x="0" y="0" fill="url(#SvgjsLinearGradient9368)"></rect><g mask="url(&quot;#SvgjsMask9370&quot;)"><path d="M1173 345L1127 299M1219 345L1173 299M1265 345L1219 299L1173 253M1495 299L1449 299L1403 299L1357 299L1311 345L1265 345L1219 345L1173 345L1127 345" stroke="url(#SvgjsLinearGradient9369)" stroke-width="7.67"></path><path d="M1115.5 345 a11.5 11.5 0 1 0 23 0 a11.5 11.5 0 1 0 -23 0zM1115.5 299 a11.5 11.5 0 1 0 23 0 a11.5 11.5 0 1 0 -23 0zM1161.5 299 a11.5 11.5 0 1 0 23 0 a11.5 11.5 0 1 0 -23 0zM1161.5 253 a11.5 11.5 0 1 0 23 0 a11.5 11.5 0 1 0 -23 0z" fill="url(#SvgjsLinearGradient9369)"></path><path d="M1495 253L1449 253L1403 253L1357 253" stroke="url(#SvgjsLinearGradient9369)" stroke-width="7.67"></path><path d="M1345.5 253 a11.5 11.5 0 1 0 23 0 a11.5 11.5 0 1 0 -23 0z" fill="url(#SvgjsLinearGradient9369)"></path><path d="M1081 391L1035 345L989 345M1495 345L1449 345L1403 345L1357 345L1311 391L1265 391L1219 391L1173 391L1127 391L1081 391L1035 391" stroke="url(#SvgjsLinearGradient9369)" stroke-width="7.67"></path><path d="M1023.5 391 a11.5 11.5 0 1 0 23 0 a11.5 11.5 0 1 0 -23 0zM977.5 345 a11.5 11.5 0 1 0 23 0 a11.5 11.5 0 1 0 -23 0z" fill="url(#SvgjsLinearGradient9369)"></path><path d="M1495 207L1449 207L1403 207L1357 207L1311 207" stroke="url(#SvgjsLinearGradient9369)" stroke-width="7.67"></path><path d="M1299.5 207 a11.5 11.5 0 1 0 23 0 a11.5 11.5 0 1 0 -23 0z" fill="url(#SvgjsLinearGradient9369)"></path><path d="M1265 437L1219 483L1173 483L1127 483M1081 437L1035 483L989 483L943 483M1403 391L1357 437M1495 391L1449 391L1403 391L1357 391L1311 437L1265 437L1219 437L1173 437L1127 437L1081 437L1035 437L989 391L943 391" stroke="url(#SvgjsLinearGradient9369)" stroke-width="7.67"></path><path d="M931.5 391 a11.5 11.5 0 1 0 23 0 a11.5 11.5 0 1 0 -23 0zM1115.5 483 a11.5 11.5 0 1 0 23 0 a11.5 11.5 0 1 0 -23 0zM931.5 483 a11.5 11.5 0 1 0 23 0 a11.5 11.5 0 1 0 -23 0zM1345.5 437 a11.5 11.5 0 1 0 23 0 a11.5 11.5 0 1 0 -23 0z" fill="url(#SvgjsLinearGradient9369)"></path><path d="M1403 161L1357 115L1311 115M1449 161L1403 115M1219 161L1173 207L1127 207L1081 207M1495 161L1449 161L1403 161L1357 161L1311 161L1265 161L1219 161L1173 161" stroke="url(#SvgjsLinearGradient9369)" stroke-width="7.67"></path><path d="M1161.5 161 a11.5 11.5 0 1 0 23 0 a11.5 11.5 0 1 0 -23 0zM1299.5 115 a11.5 11.5 0 1 0 23 0 a11.5 11.5 0 1 0 -23 0zM1391.5 115 a11.5 11.5 0 1 0 23 0 a11.5 11.5 0 1 0 -23 0zM1069.5 207 a11.5 11.5 0 1 0 23 0 a11.5 11.5 0 1 0 -23 0z" fill="url(#SvgjsLinearGradient9369)"></path></g></g><defs><mask id="SvgjsMask9367"><rect width="1440" height="560" fill="#ffffff"></rect></mask><linearGradient x1="100%" y1="50%" x2="0%" y2="50%" gradientUnits="userSpaceOnUse" id="SvgjsLinearGradient9368"><stop stop-color="rgba(243, 243, 243, 1)" offset="0"></stop><stop stop-color="rgba(13, 13, 13, 0.89)" offset="0"></stop><stop stop-color="rgba(13, 13, 13, 0.89)" offset="0.5"></stop><stop stop-color="rgba(13, 13, 13, 0.89)" offset="1"></stop></linearGradient><linearGradient x1="619.2" y1="280" x2="1440" y2="280" gradientUnits="userSpaceOnUse" id="SvgjsLinearGradient9369"><stop stop-color="#3a7cc3" offset="0"></stop><stop stop-color="rgba(37, 99, 235, 1)" offset="1"></stop></linearGradient><mask id="SvgjsMask9370"><rect width="1440" height="560" fill="white"></rect><path d="M1121.25 345 a5.75 5.75 0 1 0 11.5 0 a5.75 5.75 0 1 0 -11.5 0zM1121.25 299 a5.75 5.75 0 1 0 11.5 0 a5.75 5.75 0 1 0 -11.5 0zM1167.25 299 a5.75 5.75 0 1 0 11.5 0 a5.75 5.75 0 1 0 -11.5 0zM1167.25 253 a5.75 5.75 0 1 0 11.5 0 a5.75 5.75 0 1 0 -11.5 0z" fill="black"></path><path d="M1351.25 253 a5.75 5.75 0 1 0 11.5 0 a5.75 5.75 0 1 0 -11.5 0z" fill="black"></path><path d="M1029.25 391 a5.75 5.75 0 1 0 11.5 0 a5.75 5.75 0 1 0 -11.5 0zM983.25 345 a5.75 5.75 0 1 0 11.5 0 a5.75 5.75 0 1 0 -11.5 0z" fill="black"></path><path d="M1305.25 207 a5.75 5.75 0 1 0 11.5 0 a5.75 5.75 0 1 0 -11.5 0z" fill="black"></path><path d="M937.25 391 a5.75 5.75 0 1 0 11.5 0 a5.75 5.75 0 1 0 -11.5 0zM1121.25 483 a5.75 5.75 0 1 0 11.5 0 a5.75 5.75 0 1 0 -11.5 0zM937.25 483 a5.75 5.75 0 1 0 11.5 0 a5.75 5.75 0 1 0 -11.5 0zM1351.25 437 a5.75 5.75 0 1 0 11.5 0 a5.75 5.75 0 1 0 -11.5 0z" fill="black"></path><path d="M1167.25 161 a5.75 5.75 0 1 0 11.5 0 a5.75 5.75 0 1 0 -11.5 0zM1305.25 115 a5.75 5.75 0 1 0 11.5 0 a5.75 5.75 0 1 0 -11.5 0zM1397.25 115 a5.75 5.75 0 1 0 11.5 0 a5.75 5.75 0 1 0 -11.5 0zM1075.25 207 a5.75 5.75 0 1 0 11.5 0 a5.75 5.75 0 1 0 -11.5 0z" fill="black"></path></mask></defs></svg>