<svg xmlns="http://www.w3.org/2000/svg" viewBox="0 0 1035 760" width="1035" height="760"><g transform="translate(119.0 124.0) rotate(0.0 191.0 205.5) scale(0.9987789796243859 0.9995500808638448)"><svg width="382.467" height="411.185" viewBox="0 0 382.467 411.185"><path d="M1.5 50.789h379.467v322.896c0 19.869-16.131 36-36 36H37.5c-19.869 0-36-16.131-36-36z" fill="#231f20"/><path d="M380.967 50.789V37.501c0-19.882-16.118-36-36-36H37.5C17.618 1.5 1.5 17.618 1.5 37.5v13.288h379.467z" fill="#fff"/><path d="M1.5 49.289h379.467v3H1.5z" fill="#231f20"/><g fill="#fff"><path d="M79.729 89.19h42.601v3H79.729zm71.677 0h194.711v3H151.406zm0 31.034h72.024v3h-72.024zm0 31.034h41.167v3h-41.167zm69.455 0h125.254v3H220.861zm-140.384 0h40.856v3H80.477zm70.929 31.034h102.469v3H151.406zm129.257 0h66.953v3h-66.953zm-129.257 31.034h102.469v3H151.406zm-.997 31.034h199.185v3H150.409zm-69.932 31.035h40.856v3H80.477zm70.929 0h153.993v3H151.406zm0 31.034h198.188v3H151.406zm0 31.034h198.188v3H151.406zm80.713 31.034h74.78v3h-74.78zm-80.713 0h53.924v3h-53.924zM49.288 50.789h3v358.896h-3z"/></g><circle cx="26.144" cy="90.69" fill="#ee4878" r="9.798"/><path d="M26.144 101.987c-6.23 0-11.298-5.068-11.298-11.298s5.068-11.298 11.298-11.298 11.298 5.068 11.298 11.298-5.068 11.298-11.298 11.298zm0-19.595c-4.575 0-8.298 3.722-8.298 8.298s3.722 8.298 8.298 8.298 8.298-3.722 8.298-8.298-3.722-8.298-8.298-8.298z" fill="#231f20"/><circle cx="26.144" cy="152.758" fill="#ee4878" r="9.798"/><path d="M26.144 164.056c-6.23 0-11.298-5.068-11.298-11.298s5.068-11.298 11.298-11.298 11.298 5.068 11.298 11.298-5.068 11.298-11.298 11.298zm0-19.595c-4.575 0-8.298 3.722-8.298 8.298s3.722 8.298 8.298 8.298 8.298-3.722 8.298-8.298-3.722-8.298-8.298-8.298z" fill="#231f20"/><path d="M344.967 411.185H37.5l-.388-.051-18.002-4.817-.673-.388-13.18-13.18-.388-.673-4.818-18.003-.051-.388V37.5l.051-.388L4.869 19.11l.388-.673 13.18-13.18.673-.388L37.112.051 37.5 0h307.467l.388.051 18.002 4.817.673.388 13.18 13.18.388.673 4.818 18.003.051.388v336.185l-.051.388-4.818 18.002-.388.673-13.18 13.18-.673.388-18.002 4.818zm-307.269-3h307.071l17.424-4.663 12.611-12.611 4.663-17.424V37.697l-4.663-17.424-12.611-12.611L344.77 3H37.697L20.274 7.663 7.662 20.274 3 37.697v335.791l4.663 17.424 12.611 12.611z" fill="#231f20"/></svg></g><g transform="translate(116.0 606.0) rotate(0.0 373.5 15.5) scale(1.0043494921110836 0.9982289486395105)"><svg width="743.765" height="31.055" viewBox="0 0 743.765 31.055"><g fill="#231f20"><path d="m743.619 14.984-74.107 6.87-74.35 3.481-74.425 1.476-74.431.646-74.42 1.012-74.448 1.086-74.462-.314-74.432-2.14-74.325-4.505L.153 14.985l74.083-7.216 74.345-3.743 74.43-1.573 74.44-.488 74.435-.465 74.436.465 74.443.488 74.427 1.573 74.346 3.742z"/><path d="m297.46 31.054-74.49-.313-74.469-2.141-74.373-4.507L0 16.477l.008-2.985 74.083-7.216 74.415-3.748L222.979.953l74.462-.488L371.877 0l74.454.465 74.443.488 74.449 1.573 74.39 3.744 74.151 7.221-.007 2.987-74.108 6.869-74.417 3.486-74.466 1.478-74.447.646-74.412 1.012zM15.214 15.024l59.158 6.079 74.262 4.5 74.385 2.138 74.426.313 74.42-1.085 74.421-1.012 74.438-.646 74.409-1.476 74.309-3.48 58.328-5.408-58.377-5.686-74.276-3.737-74.383-1.571-74.42-.488L371.879 3l-74.417.465-74.44.488-74.408 1.573-74.301 3.741z"/></g></svg></g><g transform="translate(460.0 570.0) rotate(0.0 201.5 24.0) scale(0.8632674351103504 0.848671298997507)"><svg width="466.831" height="56.559" viewBox="0 0 466.831 56.559"><path style="fill:#231f20" d="M1.5 1.5h463.831v53.559H1.5z"/><path d="M465.331 56.559H1.5l-1.5-1.5V1.5L1.5 0h463.831l1.5 1.5v53.559l-1.5 1.5ZM3 53.559h460.831V3H3v50.559Z" style="fill:#231f20"/></svg></g><g transform="translate(753.0 216.0) rotate(174.07362294577734 87.5 85.5) scale(0.7081006716840658 0.7115453433310308)"><svg width="247.14" height="240.322" viewBox="0 0 247.14 240.322"><path d="M35.61 183.348c-3.935 4.432-8.193 9.664-11.923 14.114 20.586-7.919 41.282-16.509 61.947-24.421-3.7 21.677-8.135 43.852-11.855 65.526 15.708-18.376 30.751-36.993 46.76-55.235 20.863 17.32 41.848 35.741 62.642 53.058-9.761-25.375-20.474-51.199-30.193-76.59 26.799 4.578 54.217 10.047 81.009 14.669-21.14-17.095-43.331-34.103-64.443-51.232 25.498-9.435 51.977-18.408 77.49-27.801-27.38-4.316-55.584-8.003-82.954-12.389 3.568-22.184 8.909-48.927 12.987-72.495-13.827 17.099-27.583 35.046-41.437 52.122C128.008 42.052 120.75 20.635 113.153 0c-3.425 21.721-6.364 44.142-9.824 65.858-16.92-14.045-33.914-28.963-50.811-43.036 7.895 20.524 16.56 41.411 24.421 61.947-21.676-3.703-43.852-8.126-65.521-11.865 17.099 13.827 35.046 27.583 52.122 41.437C42.917 121.972 21.5 129.23.865 136.826c21.721 3.425 44.142 6.364 65.858 9.824-10.242 12.259-20.677 24.478-31.113 36.698z" fill="#fff"/><path d="m234.489 174.231-1.115 2.462c-25.23-4.346-53.37-9.91-78.589-14.254 9.183 23.884 20.131 50.403 29.315 74.297l-2.197 1.575c-19.892-16.558-41.692-35.642-61.588-52.183-14.967 17.047-31.147 37.006-45.859 54.196l-2.436-1.145c3.472-20.258 7.946-42.865 11.441-63.107-19.167 7.38-40.475 16.168-59.655 23.542l-1.574-2.197c13.148-15.795 28.317-33.142 41.467-48.923-20.289-3.192-43.137-6.235-63.434-9.438L0 136.364c19.284-7.105 41.094-14.544 60.373-21.635-15.975-12.91-34.24-26.968-50.216-39.892l1.115-2.462c20.253 3.49 42.861 7.953 63.102 11.451-7.38-19.167-16.169-40.474-23.542-59.655l2.196-1.574c15.795 13.149 33.143 28.317 48.923 41.467 3.193-20.289 6.234-43.137 9.44-63.435l2.689-.265c7.104 19.285 14.542 41.096 21.635 60.374 12.91-15.974 26.967-34.24 39.892-50.215l2.461 1.115c-3.921 22.75-9.052 48.274-12.753 71.099 26.115 4.172 55.441 8.042 81.562 12.168l.264 2.69c-24.024 8.85-51.174 18.105-75.187 26.949 19.892 16.094 42.634 33.586 62.535 49.687zm-83.19-13.083 1.539-1.876c24.269 4.143 51.485 9.478 75.713 13.752-19.185-15.394-41.147-32.344-60.262-47.855l.395-2.394c23.09-8.545 49.327-17.535 72.445-25.947-24.482-3.765-52.175-7.487-76.655-11.398-.827.538-2.262.293-2.191-1.386l-.02-.004c3.492-21.574 8.311-46.13 12.135-67.58-12.21 15.255-25.741 32.753-38.06 47.94l-2.394-.395c-6.786-18.345-13.972-39.256-20.632-57.63-2.946 19.316-5.915 41.235-8.99 60.547l-2.271.855c-15.047-12.492-31.726-27.009-46.68-39.591 7.107 18.201 15.494 38.668 22.488 56.93l-1.539 1.876c-19.28-3.295-40.984-7.529-60.225-10.948 15.255 12.21 32.753 25.742 47.941 38.06l-.395 2.394c-18.345 6.786-39.257 13.971-57.63 20.631 19.316 2.946 41.236 5.915 60.548 8.991l.854 2.271C54.918 163.44 40.401 180.12 27.82 195.073c18.202-7.107 38.67-15.494 56.933-22.489l1.873 1.54c-3.31 19.385-7.577 41.178-10.994 60.528 13.698-16.194 29.415-35.382 43.467-51.387l1.947-.16c18.887 15.676 39.727 33.849 58.514 49.616-8.917-22.923-19.463-48.584-28.261-71.573z" fill="#231f20"/></svg></g><g transform="translate(310.0 186.0) rotate(0.0 315.5 218.0) scale(0.9999065063646981 0.9995048324683184)"><svg width="631.059" height="436.216" viewBox="0 0 631.059 436.216"><path d="M103.541 204.586c-4.004-2.343-18.308-7.618-24.788-9.22-10.346-2.558-22.732-1.535-32.494 2.931-17.591 8.049-4.825 30.981 13.751 42.068 5.208 3.108 21.106 11.962 21.106 11.962z" fill="#b25539"/><path d="M80.386 253.638c-.159-.089-15.978-8.9-21.145-11.984-13.8-8.237-23.406-21.755-22.839-32.143.306-5.604 3.498-9.953 9.233-12.577 9.89-4.525 22.718-5.684 33.478-3.024 6.257 1.547 20.856 6.849 25.185 9.382l.6 1.932-22.425 47.741-2.088.673zm-13.344-58.145c-7.03 0-14.168 1.427-20.159 4.168-4.723 2.161-7.241 5.53-7.486 10.012-.501 9.189 8.691 21.83 21.381 29.404 4.222 2.52 15.662 8.922 19.664 11.157l21.134-44.993c-4.963-2.451-17.26-6.954-23.183-8.418-3.608-.892-7.464-1.329-11.351-1.329zM366.889 41.824c0 4.227-6.523 7.372-7.761 11.187-1.284 3.953 2.1 10.323-.295 13.614-2.419 3.324-9.538 2.061-12.862 4.48-3.291 2.395-4.276 9.569-8.23 10.852-3.815 1.239-8.812-3.945-13.04-3.945s-9.225 5.184-13.04 3.945c-3.953-1.284-4.939-8.458-8.23-10.853-3.324-2.419-10.443-1.157-12.862-4.48-2.395-3.291.989-9.66-.294-13.613-1.239-3.815-7.761-6.959-7.761-11.187s6.523-7.372 7.761-11.187c1.284-3.953-2.1-10.323.295-13.614 2.419-3.324 9.538-2.061 12.862-4.48 3.291-2.395 4.276-9.569 8.23-10.852 3.815-1.239 8.812 3.945 13.04 3.945s9.225-5.184 13.04-3.945c3.953 1.284 4.939 8.458 8.23 10.853 3.324 2.419 10.443 1.157 12.862 4.48 2.395 3.291-.989 9.66.294 13.613 1.239 3.815 7.761 6.959 7.761 11.187z" fill="#231f20"/><path d="M336.48 83.65c-2.141 0-4.32-1.115-6.443-2.201-1.862-.953-3.787-1.938-5.335-1.938s-3.473.985-5.335 1.938c-2.696 1.379-5.484 2.806-8.168 1.934-2.799-.909-4.24-3.772-5.635-6.541-.911-1.809-1.852-3.679-3.015-4.525-1.187-.864-3.277-1.188-5.298-1.502-3.041-.472-6.186-.961-7.894-3.308-1.69-2.322-1.19-5.446-.707-8.467.326-2.036.662-4.14.199-5.566-.431-1.328-1.898-2.779-3.316-4.182-2.222-2.198-4.519-4.47-4.519-7.468s2.297-5.27 4.519-7.468c1.418-1.403 2.885-2.854 3.316-4.182.463-1.426.126-3.53-.199-5.566-.483-3.021-.982-6.145.708-8.467 1.708-2.347 4.853-2.835 7.894-3.308 2.021-.314 4.111-.639 5.298-1.502 1.163-.846 2.104-2.716 3.015-4.525 1.394-2.769 2.836-5.633 5.634-6.541 2.684-.872 5.472.555 8.168 1.934 1.862.953 3.787 1.938 5.335 1.938s3.473-.985 5.335-1.938C332.733.82 335.52-.607 338.205.265c2.799.909 4.241 3.772 5.635 6.541.911 1.809 1.852 3.679 3.015 4.525 1.187.864 3.277 1.188 5.298 1.502 3.041.472 6.186.961 7.894 3.308 1.69 2.322 1.19 5.446.707 8.467-.326 2.036-.662 4.141-.199 5.566.431 1.328 1.898 2.779 3.316 4.182 2.222 2.198 4.519 4.47 4.519 7.468s-2.297 5.27-4.519 7.468c-1.418 1.403-2.885 2.854-3.316 4.182-.463 1.426-.126 3.53.199 5.566.483 3.021.982 6.145-.708 8.467-1.708 2.347-4.853 2.835-7.894 3.308-2.021.314-4.111.639-5.298 1.502-1.163.846-2.104 2.716-3.015 4.525-1.394 2.769-2.836 5.633-5.634 6.541a5.557 5.557 0 0 1-1.725.267zm-11.778-7.139c2.27 0 4.523 1.153 6.702 2.267 2.151 1.101 4.376 2.239 5.875 1.752 1.608-.522 2.764-2.817 3.881-5.037 1.071-2.128 2.179-4.328 3.929-5.601 1.774-1.291 4.229-1.673 6.603-2.041 2.436-.378 4.954-.77 5.929-2.109.956-1.314.557-3.812.171-6.228-.381-2.386-.776-4.854-.09-6.966.656-2.021 2.386-3.733 4.059-5.388 1.784-1.765 3.629-3.59 3.629-5.335s-1.845-3.57-3.629-5.335c-1.673-1.655-3.403-3.367-4.059-5.388-.686-2.112-.291-4.58.09-6.966.386-2.416.786-4.914-.171-6.228-.974-1.339-3.493-1.73-5.929-2.109-2.374-.369-4.829-.75-6.603-2.041-1.75-1.274-2.858-3.474-3.929-5.601-1.118-2.22-2.273-4.515-3.882-5.037-1.501-.488-3.724.651-5.875 1.751-2.178 1.115-4.431 2.267-6.702 2.267s-4.523-1.153-6.702-2.267c-2.151-1.101-4.375-2.238-5.875-1.752-1.608.522-2.764 2.817-3.881 5.037-1.071 2.128-2.179 4.328-3.929 5.601-1.774 1.291-4.229 1.673-6.603 2.041-2.436.378-4.954.77-5.929 2.109-.957 1.314-.557 3.812-.171 6.228.381 2.386.776 4.854.09 6.966-.656 2.021-2.386 3.733-4.059 5.388-1.784 1.765-3.629 3.59-3.629 5.335s1.845 3.57 3.629 5.335c1.673 1.655 3.403 3.367 4.059 5.388.686 2.112.291 4.58-.09 6.966-.386 2.416-.786 4.914.171 6.228.974 1.339 3.493 1.73 5.929 2.109 2.374.369 4.829.75 6.603 2.041 1.75 1.274 2.858 3.474 3.929 5.602 1.118 2.22 2.273 4.515 3.882 5.037 1.5.487 3.724-.651 5.875-1.752 2.178-1.115 4.431-2.267 6.702-2.267z" fill="#231f20"/><path d="M288.702 102.824s8.175-60.911 8.508-62.538c2.331-11.392 12.411-19.962 24.492-19.962s22.161 8.57 24.492 19.962c.333 1.627 8.508 62.538 8.508 62.538z" fill="#fff"/><g fill="#231f20"><path d="M354.702 104.324h-66l-1.487-1.7c.838-6.24 8.191-61.009 8.525-62.64 2.509-12.261 13.428-21.161 25.962-21.161s23.453 8.899 25.962 21.161c.334 1.631 7.688 56.4 8.525 62.64zm-64.285-3h62.57c-2.409-17.937-7.98-59.29-8.263-60.74-2.224-10.869-11.906-18.76-23.022-18.76s-20.798 7.891-23.022 18.762c-.282 1.447-5.854 42.801-8.263 60.738z"/><path d="M346.194 40.285c-2.331-11.392-12.411-19.961-24.492-19.961-11.806 0-21.679 8.191-24.3 19.194 1.539-.43 3.033-.72 4.313-.442 3.795.822 7.247 6.93 10.913 6.56 3.799-.384 6.165-6.695 9.377-8.609 3.697-2.203 9.427-2.461 11.303 3.999 1.394 4.799-2.359 9.702-.159 12.725 2.222 3.053 9.104 1.553 12.157 3.775 1.911 1.391 2.89 4.705 4.268 7.255-1.718-12.684-3.24-23.812-3.379-24.495z"/><path d="M348.254 65.493c-.427-.791-.813-1.639-1.185-2.458-.793-1.743-1.612-3.546-2.645-4.297-1.054-.767-3.041-.995-4.961-1.215-2.908-.333-5.916-.678-7.526-2.89-1.541-2.117-.97-4.682-.417-7.161.448-2.011.911-4.09.349-6.028-.598-2.059-1.654-3.4-3.138-3.985-2.005-.79-4.392-.076-5.957.857-1.081.644-2.204 2.109-3.291 3.526-1.883 2.457-3.831 4.997-6.703 5.287-2.65.266-4.875-1.711-7.028-3.624-1.478-1.313-3.006-2.671-4.353-2.963-1.042-.226-2.467.107-3.592.421l-1.863-1.792a26.392 26.392 0 0 1 25.759-20.347c12.534 0 23.453 8.899 25.962 21.161.047.231.191.934 3.396 24.594l-2.806.914zm-21.43-31.374c1.055 0 2.074.181 3.006.548 1.646.649 3.835 2.205 4.919 5.94.777 2.676.204 5.248-.302 7.517-.445 1.997-.829 3.721-.085 4.744.835 1.147 3.177 1.415 5.442 1.675 2.307.264 4.692.538 6.385 1.77.293.213.565.456.82.722-1.829-13.439-2.224-16.141-2.284-16.451-2.225-10.87-11.907-18.76-23.022-18.76-10.101 0-18.895 6.349-22.159 15.71.831-.099 1.676-.1 2.49.076 2.115.458 3.943 2.082 5.71 3.652 1.669 1.483 3.393 3.016 4.734 2.881 1.582-.16 3.129-2.177 4.624-4.127 1.258-1.641 2.56-3.339 4.136-4.278 1.792-1.068 3.744-1.619 5.586-1.619zm-17.122 36.205c-8.627 0-12.41-4.656-12.567-4.854l2.345-1.87c.124.152 3.127 3.725 10.221 3.725 7.331 0 12.02-3.637 12.067-3.674l1.87 2.345c-.221.177-5.508 4.329-13.937 4.329zm-3.965-13.909-2.2-3.211-3.241-.472-4.068 2.394-1.522-2.586 4.523-2.661.977-.192 4.413.643 1.021.636 2.572 3.753z"/><path d="m325.231 57.824-1.967-2.952-3.835-.55-3.441 2.549-1.786-2.411 3.938-2.916 1.105-.279 5.108.732 1.036.653 2.338 3.51z"/></g><path d="m9.501 320.308 40.108-64.711 46.284-60.681 47.88-59.422 10.707-9.538 13.155-5.709 14.28-1.306 24.643 9.349 15.25 21.509.67 26.348-21.212 74.169-22.493 73.796-26.486 72.34-47.591-25.379-47.597-25.383z" fill="#ee4878"/><path d="M153.103 398.587 7.383 320.878l41.034-66.19 46.284-60.682 47.982-59.549 10.98-9.781 13.596-5.9 14.865-1.359 25.394 9.634 15.779 22.255.687 27.035-21.275 74.389-22.5 73.821-27.105 74.037zm-141.484-78.85 139.852 74.58 25.893-70.721 22.467-73.718 21.141-73.922-.652-25.662-14.722-20.764-23.892-9.064-13.696 1.253-12.713 5.517-10.435 9.296-47.802 59.325-46.216 60.593-39.226 63.288z" fill="#231f20"/><path d="M494.212 372.838H131.935l11.917-39.414 12.466-39.251 13.811-38.784 13.306-36.379 13.308-36.385 13.308-36.384h200.432l27.909 75.53 27.91 75.534z" fill="#fff"/><path d="M494.212 374.338H131.935l-1.436-1.934 11.918-39.414 12.472-39.271 13.828-38.832 39.926-109.161 1.409-.985h200.432l1.407.98 83.729 226.598-1.407 2.02zm-360.256-3h358.102l-82.62-223.598H211.099l-39.561 108.164-13.807 38.771-12.449 39.202-11.327 37.46zm406.535-170.577 8.059-3.589 8.292-3.042 8.436-2.589 10.959-1.371 11.006.976 10.53 3.327 8.197 14.545-8.162 15.908-13.786 11.615-7.004 4.038-7.048 3.977-7.054 3.947-7.475-15.913-7.475-15.914z" fill="#231f20"/><path d="m563.648 249.812-2.09-.671-22.425-47.741.747-2.008 8.153-3.627 8.292-3.042 8.767-2.669 11.278-1.377 11.325 1.04 10.53 3.327.855.694 8.197 14.545.028 1.421-8.162 15.908-.368.462-14.003 11.767-7.004 4.039-14.119 7.933zm-21.149-48.303 21.089 44.898 12.692-7.134 6.877-3.965 13.454-11.335 7.656-14.922-7.51-13.326-9.809-3.099-10.683-.947-10.671 1.335-8.312 2.55-8.168 2.999z" fill="#231f20"/><path d="m245.896 355.117-16.098 42.967a11.368 11.368 0 0 1-10.814 7.862c-7.722 0-13.197-7.533-10.813-14.878 0 0 6.805-21.221 9.99-30.398 8.799-25.353 20.037-36.689 62.5-43.847 5.401-.91 76.309-17.931 100.772 34.054 4.524 9.612 8.618 40.865-12.371 50.699 0 0-12.889 1.008-29.838 1.008-22.526 0-31.84-8.953-31.84-8.953" fill="#fff"/><path d="M218.984 407.447c-4.166 0-7.96-1.933-10.41-5.303s-3.116-7.576-1.83-11.538c.067-.207 6.845-21.338 10-30.427 8.693-25.047 19.948-37.464 63.668-44.834.262-.044.682-.128 1.248-.24 23.27-4.603 79.706-10.393 101.131 35.134 3.284 6.977 5.948 23.379 1.24 36.424-2.755 7.632-7.576 13.107-14.331 16.272l-.52.137c-.13.01-13.142 1.012-29.955 1.012-22.868 0-32.481-8.989-32.879-9.372l2.079-2.163c.086.082 9.256 8.535 30.8 8.535 15.355 0 27.495-.84 29.447-.983 5.879-2.832 10.096-7.695 12.536-14.457 4.579-12.687 1.522-28.488-1.132-34.128-20.524-43.614-75.256-37.935-97.834-33.468-.604.119-1.052.208-1.331.255-42.488 7.162-52.879 18.501-61.333 42.86-3.143 9.056-9.911 30.152-9.979 30.365-.988 3.044-.476 6.269 1.402 8.853s4.788 4.067 7.983 4.067a9.845 9.845 0 0 0 9.388-6.825l16.12-43.031 2.809 1.052-16.098 42.967c-1.704 5.26-6.623 8.836-12.219 8.836z" fill="#231f20"/><path d="m245.896 355.117-13.228 35.951c-2.384 7.345 3.091 14.878 10.813 14.878 4.228 0 8.042-2.337 10.001-5.961.324-.6 18.333-42.786 18.333-42.786" fill="#fff"/><path d="M243.481 407.447c-4.166 0-7.96-1.933-10.41-5.303-2.449-3.37-3.117-7.576-1.83-11.538l13.247-36.006 2.815 1.036-13.228 35.951c-.967 2.984-.456 6.209 1.423 8.794a9.77 9.77 0 0 0 7.983 4.067 9.856 9.856 0 0 0 8.681-5.174c.464-.971 13.349-31.127 18.273-42.662l2.759 1.178c-4.231 9.911-18.062 42.297-18.393 42.91a12.853 12.853 0 0 1-11.32 6.748z" fill="#231f20"/><path d="m271.815 357.2-14.249 33.926c-2.378 7.328 3.067 14.85 10.771 14.878a11.367 11.367 0 0 0 9.651-5.292c.5-.79 20.169-41.3 20.169-41.3" fill="#fff"/><path d="M268.381 407.504h-.049c-4.156-.016-7.938-1.955-10.376-5.322s-3.1-7.565-1.816-11.519l.044-.118 14.249-33.926 2.766 1.162-14.224 33.866a9.77 9.77 0 0 0 1.411 8.776 9.767 9.767 0 0 0 7.957 4.081c3.422.032 6.551-1.704 8.378-4.593.557-.989 12.321-25.158 20.087-41.153l2.699 1.31c-4.623 9.521-19.745 40.647-20.25 41.446a12.799 12.799 0 0 1-10.876 5.99z" fill="#231f20"/><path d="m298.157 359.413-15.253 31.713c-2.378 7.328 3.067 14.85 10.771 14.878a11.371 11.371 0 0 0 9.212-4.647c.542-.74 22.854-39.811 22.854-39.811" fill="#fff"/><path d="M293.718 407.504h-.047c-4.156-.016-7.938-1.955-10.376-5.322s-3.1-7.565-1.816-11.519l.075-.187 15.253-31.713 2.704 1.3-15.207 31.619a9.766 9.766 0 0 0 1.423 8.741 9.767 9.767 0 0 0 7.957 4.081 9.84 9.84 0 0 0 7.997-4.034c.619-.947 13.955-24.246 22.761-39.667l2.605 1.488c-5.244 9.183-22.396 39.203-22.947 39.954a12.912 12.912 0 0 1-10.38 5.26z" fill="#231f20"/><path d="M557.519 200.488c9.864 11.511 17.009 36.044 28.347 52.955 8.253 12.309 32.709 51.559 32.709 51.559 31.506 56.65-8.394 129.715-70.373 129.715-39.588 0-78.933-10.245-111.31-19.901-39.775-11.863-67.83-13.239-67.83-13.239.002.024 6.895-22.373-1.047-45.051-17.846-50.957-87.354-39.702-87.354-39.702l180.391-29.21c-20.969-34.481-39.814-82.376-52.363-117.931-9.006-25.517 6.542-53.115 33.039-58.602a44.646 44.646 0 0 1 35.29 7.594 339.513 339.513 0 0 1 69.099 67.063l11.402 14.751z" fill="#ee4878"/><path d="M548.202 436.217c-39.479 0-78.639-10.092-111.738-19.964-39.117-11.667-67.196-13.165-67.475-13.179l.074-1.498-1.426-.466c.068-.216 6.632-22.189-1.038-44.089-7.202-20.564-23.736-33.337-49.143-37.965-19.053-3.471-36.23-.803-36.552-.752h-.003l-.479-2.961h.003l178.197-28.855c-20.759-34.745-39.333-82.266-51.347-116.306a46.178 46.178 0 0 1 3.323-38.064 46.128 46.128 0 0 1 30.827-22.507 46.245 46.245 0 0 1 36.476 7.849 340.808 340.808 0 0 1 69.404 67.359l11.379 14.721c5.359 6.267 9.864 16.12 14.633 26.551 4.198 9.182 8.54 18.676 13.796 26.516 8.172 12.189 32.492 51.208 32.736 51.601 15.455 27.785 14.821 62.368-1.617 90.319-15.352 26.104-41.531 41.689-70.03 41.689zm-177.211-36.011c6.925.542 32.582 3.107 66.33 13.172 32.892 9.81 71.788 19.839 110.881 19.839 27.424 0 52.636-15.032 67.444-40.21 15.901-27.038 16.521-60.48 1.619-87.276-.207-.328-24.499-39.305-32.644-51.453-5.392-8.042-9.785-17.649-14.033-26.939-4.686-10.249-9.113-19.93-14.208-25.875l-.048-.059-11.402-14.751a337.851 337.851 0 0 0-68.793-66.767 43.233 43.233 0 0 0-34.104-7.339 43.13 43.13 0 0 0-28.823 21.043 43.178 43.178 0 0 0-3.106 35.591c12.188 34.532 31.142 82.975 52.23 117.651l-1.042 2.26-156.828 25.394c4.215.257 8.761.75 13.45 1.601 26.217 4.755 44.032 18.566 51.517 39.94 4.188 11.959 4.26 23.808 3.583 31.643-.421 4.873-1.293 9.712-2.023 12.534z" fill="#231f20"/><path d="M505.332 316.42c-15.047-27.031-43.893-27.307-44.273-27.307h-.001l-.013-3c.275-.013 30.955.188 46.908 28.848z" fill="#231f20"/><path d="m215.314 153.688-2.034 18.027-6.382 17.02-9.7 15.385-10.836 16.085-8.946 17.213-7.287 17.971-3.306-.795-3.052-1.542-2.771-2.008-7.445-7.63-6.19-8.688-7.51-7.549-11.025-5.15-12.031-2.247-11.947-2.507-11.219-6.191-10.024-7.99-11.581-5.389-8.522-1.683-8.683-.008-8.337 2.306-.073-.007-.077-.007-.077-.006 42.767-23.394 39.255-28.976 37.95-30.673 23.722-13.39 26.256-7.371 27.185-2.431L295.81 91l52.416-1.33 52.411-1.432 27.209 2.286 26.25 7.448 23.705 13.457 37.959 30.682 39.251 28.972 42.762 23.39-8.642-1.967-8.9.402-8.71 1.929-14.463 6.578-13.067 9.118-13.91 7.744-8.571 2.016-8.797.876-8.536 2.183-7.248 5.004-6.482 6.016-7.248 5.009-8.535 2.178-8.799.876-8.564 2.047-5.058 3.036-4.512 3.818-4.296 4.053-.145-.295-.145-.297-.145-.297-8.231-18.298-8.447-18.192-11.371-16.528-9.925-15.287-6.392-17.059-1.799-18.086" fill="#fff"/><path d="m169.778 256.848-3.631-.915-3.257-1.666-2.964-2.176-7.592-7.806-6.119-8.588-7.236-7.274-10.611-4.956-11.845-2.213-11.979-2.513-.417-.154-11.429-6.332-9.884-7.878-11.255-5.237-8.201-1.621-8.332-.007-8.14 2.251-.529.049-.151-.013-.667-2.817 42.678-23.345 39.173-28.916 37.898-30.633.205-.14 23.722-13.39.332-.137 26.529-7.422 27.288-2.435L295.78 89.5l52.408-1.329 52.408-1.432.167.005 27.492 2.337 26.25 7.447.331.139 23.908 13.596 37.959 30.681 39.117 28.872 42.673 23.341-1.053 2.778-8.444-1.921-8.567.386-8.43 1.868-14.195 6.455-13.083 9.12-13.911 7.745-.386.149-8.765 2.048-8.685.866-8.166 2.088-6.938 4.79-6.571 6.077-7.248 5.009-.481.219-8.758 2.218-8.698.866-8.239 1.969-4.756 2.855-4.419 3.739-4.236 3.999-2.377-.432-.434-.888-8.252-18.343-8.386-18.06-11.3-16.425-10.094-15.611-6.392-17.058-.087-.378-1.799-18.087 2.985-.297 1.779 17.892 6.266 16.722 9.836 15.15 11.473 16.714 8.448 18.191 7.784 17.305 2.787-2.63 4.77-4.013 5.058-3.036.423-.173 8.764-2.081 8.686-.864 8.165-2.084 6.938-4.795 6.572-6.077 7.247-5.005.481-.218 8.759-2.222 8.699-.867 8.271-1.945 13.661-7.606 13.242-9.21 14.76-6.676 8.967-1.964 8.205-.37-34.249-18.749-39.251-28.973-37.916-30.644-23.44-13.308-25.937-7.358-26.981-2.267-52.328 1.43-52.419 1.329-52.373 1.063-26.994 2.413-25.949 7.285-23.455 13.24-37.853 30.594-39.478 29.126-33.443 18.293 7.493.035 8.864 1.795 11.884 5.576 9.925 7.911 10.911 6.022 11.727 2.46 12.358 2.356 11.025 5.15.428.301 7.669 7.736 6.123 8.595 7.274 7.455 2.57 1.862 2.789 1.409 1.881.453 6.861-16.903 9.033-17.359 10.836-16.085 9.593-15.217 6.263-16.703 2.013-17.842 2.981.336-2.12 18.385-6.517 17.294-9.7 15.385-10.814 16.053-8.873 17.074-7.261 17.906z" fill="#231f20"/><path d="M85.39 434.716h-1.91c-40.515 0-72.385-30.597-79.489-70.485-8.55-48.011 5.016-142.391 10.965-221.134l118.502-12.081c1.784 12.081 10.754 54.35 19.372 105.079 6.809 40.079 16.078 101.624 12.334 125.361-6.48 41.075-38.191 73.26-79.774 73.26z" fill="#ee4878"/><path d="M85.39 436.216h-1.91c-19.957 0-38.382-7.149-53.282-20.674-14.301-12.982-24.133-31.111-27.683-51.048-6.387-35.865-.419-98.33 5.353-158.739 1.998-20.911 4.064-42.535 5.593-62.771l.095-1.252 121.177-12.354.209 1.419c.719 4.867 2.599 14.603 5.202 28.078 3.814 19.749 9.039 46.796 14.165 76.968 11.075 65.191 15.226 107.531 12.337 125.846-3.251 20.607-12.901 39.39-27.174 52.889-14.966 14.155-33.667 21.637-54.081 21.637zM16.356 144.462c-1.521 19.903-3.545 41.083-5.503 61.578C5.1 266.248-.848 328.506 5.467 363.968c7.261 40.772 39.341 69.248 78.012 69.248h1.91c39.41 0 71.605-29.605 78.292-71.994 2.798-17.739-1.465-60.921-12.331-124.876-5.12-30.139-10.341-57.167-14.153-76.902-2.38-12.321-4.158-21.525-5.005-26.792L16.355 144.461z" fill="#231f20"/><path d="M133.457 131.016 117.403 22.147c-.831-6.416-6.592-10.987-12.876-10.302-6.278.684-10.845 6.373-10.199 12.797l3.436 34.132c-.721-7.162-7.111-12.383-14.273-11.662s-12.383 7.111-11.663 14.273c-.721-7.162-7.111-12.383-14.273-11.662s-12.383 7.111-11.662 14.273l.325 3.232c-.721-7.162-7.111-12.383-14.273-11.662-5.463.55-10.42 3.651-11.226 9.371-.225 1.594-5.764 78.16-5.764 78.16s19.677 10.849 61.69 7.44c42.502-3.448 56.834-19.524 56.834-19.524l-.022.002z" fill="#fff"/><path d="M60.618 152.707c-30.931 0-45.681-7.907-46.387-8.296l-.772-1.422c.567-7.842 5.55-76.663 5.775-78.261.828-5.875 5.641-9.958 12.561-10.654 7.974-.803 15.113 5.031 15.916 13.005l1.913 15.843c.616 6.116-3.619 11.743-9.637 12.839l-1.272.232a11.837 11.837 0 0 1-9.289-2.234 11.844 11.844 0 0 1-4.602-8.373l2.989-.259c.217 2.504 1.436 4.722 3.433 6.247s4.459 2.117 6.931 1.667l1.272-.232c4.491-.818 7.65-5.016 7.193-9.558l-1.913-15.843c-.312-3.095-1.796-5.856-4.181-7.806a11.46 11.46 0 0 0-8.452-2.544c-4.292.432-9.143 2.784-9.891 8.088-.193 1.529-3.757 50.477-5.68 77.05 4.164 1.923 23.75 9.787 59.999 6.846 37.077-3.008 52.495-15.85 55.342-18.537L115.919 22.366c-.723-5.587-5.758-9.628-11.229-9.03-5.45.594-9.428 5.599-8.869 11.156l5.466 51.156-2.983.319-5.467-51.165c-.725-7.199 4.447-13.676 11.528-14.448 7.084-.772 13.598 4.432 14.526 11.601l16.051 108.842-.902.133.56 1.082c-.602.675-15.222 16.563-57.833 20.021-5.803.471-11.186.674-16.148.675z" fill="#231f20"/><path d="M86.675 90.228c-7.365 0-13.696-5.597-14.449-13.078l-1.887-15.584c-.392-3.893.747-7.675 3.203-10.681s5.936-4.875 9.799-5.264c3.863-.389 7.645.75 10.651 3.206s4.876 5.936 5.264 9.799l1.887 15.584c.392 3.892-.746 7.675-3.203 10.681s-5.936 4.876-9.799 5.264c-.492.05-.982.074-1.466.074zm-3.034-41.623c-3.065.308-5.827 1.792-7.776 4.178s-2.853 5.387-2.544 8.452l1.887 15.584c.64 6.358 6.307 10.986 12.634 10.35 3.065-.308 5.827-1.792 7.776-4.178s2.853-5.387 2.544-8.453l-1.887-15.584c-.312-3.095-1.796-5.857-4.181-7.806s-5.387-2.852-8.453-2.544z" fill="#231f20"/><path d="M60.74 92.838c-7.365 0-13.696-5.597-14.449-13.078l-1.887-15.584c-.806-8.003 5.028-15.143 13.001-15.946 3.863-.389 7.645.75 10.651 3.206s4.876 5.936 5.264 9.799l1.887 15.584c.806 8.003-5.028 15.143-13.001 15.946-.492.05-.982.074-1.466.074zm-3.034-41.623c-6.328.637-10.957 6.303-10.32 12.63l1.887 15.584c.312 3.095 1.796 5.857 4.181 7.806s5.388 2.852 8.452 2.544c6.328-.637 10.957-6.303 10.32-12.63l-1.887-15.584c-.64-6.357-6.308-10.985-12.634-10.35z" fill="#231f20"/><path d="M117.82 91.999c-2.743-4.528-5.994-9.924-16.403-15.363-6.319-3.302-21.217-9.963-21.217-9.963l-8.057-.23-6.991 4.564-1.914 8.767 3.531 8.067 11.934 13.709s-1.899 11.781 3.192 21.136" fill="#fff"/><path d="M80.576 123.402c-4.607-8.466-3.787-18.613-3.452-21.381L65.637 88.825l-.243-.383-3.531-8.068-.091-.921 1.914-8.767.646-.936 6.991-4.564.863-.243 8.057.23.569.13c.61.273 15.013 6.718 21.3 10.003 10.754 5.619 14.201 11.309 16.971 15.882l-2.545 1.588-.021-.034c-2.71-4.474-5.782-9.546-15.794-14.777-5.74-2.999-18.816-8.883-20.864-9.802l-7.29-.208-6.083 3.971-1.679 7.692 3.244 7.411 11.783 13.536.35 1.222c-.018.113-1.748 11.404 3.028 20.181l-2.635 1.434z" fill="#231f20"/></svg></g><g transform="translate(226.0 430.0) rotate(0.0 195.5 96.0) scale(0.999961638300321 0.999208959573671)"><svg width="391.015" height="192.152" viewBox="0 0 391.015 192.152"><path d="M314.479 190.015h68.551l1.592-.177 1.509-.529 1.343-.867 1.081-1.177.712-1.43.248-1.576v-16.461l-.249-1.576-.712-1.43-1.081-1.177-1.342-.867-1.51-.529-1.591-.176h-68.551z" fill="#fff"/><path d="M383.031 191.515h-68.552l-1.5-1.5v-27.972l1.5-1.5 68.717.009 1.922.251 1.827.685 1.634 1.112 1.081 1.177.238.346.712 1.43.139.434.268 1.811-.018 16.694-.248 1.576-.139.435-.712 1.43-.238.346-1.372 1.422-1.661 1.023-1.838.603-1.758.187zm-67.052-3h66.968l1.34-.149 1.18-.413 1.032-.667.808-.88.515-1.033.194-1.232v-16.225l-.195-1.232-.515-1.034-.807-.88-1.031-.666-1.181-.414-1.338-.148H315.98v24.972z" fill="#231f20"/><path d="M302.709 190.015h21.292l2.577-.355 2.178-1.043 1.636-1.653.987-2.146.27-2.501-.477-2.687-51.911-167.746-1.185-2.686-1.818-2.501-2.317-2.147-2.658-1.653-2.824-1.043-2.796-.354h-18.995z" fill="#fff"/><path d="M324.001 191.515h-21.292l-1.438-1.073L245.23 1.927 246.668 0l19.184.012 3.127.435 3.096 1.176 2.885 1.826 2.511 2.366 1.976 2.777 1.246 2.848 51.911 167.747.044.181.477 2.687.014.423-.27 2.501-.129.466-.988 2.146-.297.428-1.636 1.653-.418.298-2.178 1.044-.444.133-2.781.368zm-20.173-3h20.071l2.243-.309 1.732-.83 1.267-1.28.775-1.684.22-2.044-.423-2.385L277.854 12.41l-1.086-2.459-1.637-2.253-2.104-1.95-2.406-1.497-2.519-.93L265.57 3h-16.89l55.149 185.515z" fill="#231f20"/><path d="M68.558 190.015h241.328l2.945-.406 2.491-1.192 1.87-1.891 1.129-2.453.308-2.86-.546-3.071-50.99-164.77-1.355-3.071-2.077-2.859-2.65-2.455-3.04-1.89-3.227-1.191-3.196-.406H10.22l-2.946.406-2.49 1.192-1.87 1.889-1.13 2.455-.307 2.859.545 3.071 50.99 164.77 1.356 3.071 2.077 2.86 2.649 2.454 3.039 1.89 3.228 1.192z" fill="#fff"/><path d="M309.886 191.515H68.558l-.189-.012-3.528-.487-3.5-1.325-3.267-2.063-2.843-2.673-2.236-3.135-1.417-3.233L.589 13.816l-.044-.181L0 10.563l-.015-.422.307-2.858.129-.467 1.131-2.455.296-.428 1.87-1.889.418-.298L6.626.553 7.069.42 10.22 0h241.328l.189.012 3.527.487 3.5 1.325 3.267 2.064 2.844 2.673 2.236 3.135 1.416 3.234 50.99 164.77.044.181.546 3.071.014.423-.307 2.859-.129.467-1.13 2.454-.296.427-1.87 1.89-.419.298-2.49 1.192-.443.133-3.15.42zm-241.233-3h241.13l2.611-.36 2.044-.979 1.501-1.517.917-1.991.258-2.403-.492-2.769-50.936-164.597-1.256-2.846-1.896-2.61-2.437-2.257-2.788-1.734-2.923-1.079-2.933-.372H10.323l-2.612.36-2.043.979-1.501 1.517-.917 1.992-.258 2.402.491 2.77 50.936 164.595 1.256 2.845 1.897 2.611 2.436 2.257 2.788 1.733 2.924 1.08z" fill="#231f20"/><path d="m280.247 190.275-3.217-10.394-1.717-3.889-2.629-3.619-3.354-3.108-3.849-2.392-4.086-1.51-4.046-.513H105.52l-3.729.513-3.152 1.51-2.368 2.392-1.43 3.108-.389 3.619.69 3.889 3.136 10.134" fill="#fff"/><path d="m279.257 192.152-3.635-11.745-1.616-3.663-2.449-3.371-3.141-2.91-3.597-2.236-3.783-1.397-3.782-.48H105.623l-3.395.467-2.707 1.296-1.998 2.019-1.216 2.645-.341 3.163.637 3.586 3.552 11.478-2.866.887-3.624-11.748-.69-3.889-.015-.423.39-3.619.129-.466 1.429-3.108.297-.428 2.367-2.393.419-.297 3.152-1.51.444-.133 3.933-.527h151.829l.189.012 4.377.594 4.358 1.643 4.076 2.566 3.548 3.326 2.789 3.895 1.777 4.051 3.66 11.828z" fill="#231f20"/><ellipse cx="160.052" cy="95.756" fill="#fff" rx="18.167" ry="24.725" transform="matrix(.65080072 -.75924859 .75924859 .65080072 -16.813 154.957)"/><path d="M166.611 118.45c-12.296 0-25.389-9.981-29.186-22.25-1.953-6.312-1.229-12.229 2.039-16.661 3.079-4.177 8.062-6.477 14.029-6.477 12.296 0 25.389 9.981 29.186 22.25 1.953 6.312 1.229 12.229-2.039 16.661-3.08 4.177-8.062 6.477-14.029 6.477zm-13.117-42.388c-4.99 0-9.115 1.867-11.615 5.257-2.688 3.646-3.252 8.615-1.587 13.993 3.436 11.104 15.243 20.137 26.32 20.137 4.99 0 9.115-1.867 11.615-5.257 2.688-3.646 3.252-8.615 1.587-13.993-3.436-11.104-15.243-20.137-26.32-20.137z" fill="#231f20"/></svg></g><g transform="translate(32.0 399.0) rotate(0.0 84.0 111.5) scale(0.9951958106995397 0.9959759000629742)"><svg width="168.811" height="223.901" viewBox="0 0 168.811 223.901"><path d="M125.525 9.858c2.007 6.488-1.416 37.034-1.416 37.034s-20.072-23.278-22.078-29.766c-2.007-6.488 1.626-13.374 8.114-15.381 6.488-2.007 13.374 1.626 15.381 8.113z" fill="#fff"/><path d="M122.973 47.871c-.828-.96-20.3-23.592-22.375-30.302-2.248-7.268 1.836-15.009 9.104-17.258 3.521-1.089 7.255-.742 10.514.977s5.654 4.605 6.743 8.126c2.076 6.71-1.217 36.384-1.359 37.644zM113.792 2.69c-1.073 0-2.151.162-3.204.488-5.688 1.76-8.883 7.818-7.124 13.505 1.388 4.487 13.024 18.872 19.522 26.578 1.013-10.029 2.495-28.472 1.107-32.959a10.726 10.726 0 0 0-5.277-6.359 10.742 10.742 0 0 0-5.024-1.252z" fill="#231f20"/><path d="M160.351 51.573c-4.517.667-24.462-4.743-24.462-4.743s17.528-10.947 22.045-11.614a8.267 8.267 0 1 1 2.417 16.357z" fill="#fff"/><path d="M159.478 53.124c-5.934 0-22.045-4.321-23.982-4.846l-.402-2.72c1.821-1.137 17.929-11.133 22.62-11.826 5.326-.787 10.303 2.907 11.09 8.235a9.708 9.708 0 0 1-1.82 7.251 9.702 9.702 0 0 1-6.414 3.839 7.557 7.557 0 0 1-1.092.067zm-19.818-6.851c7.766 1.993 17.794 4.212 20.472 3.816a6.722 6.722 0 0 0 4.444-2.66 6.718 6.718 0 0 0 1.261-5.024 6.775 6.775 0 0 0-7.684-5.706c-2.676.395-11.635 5.419-18.493 9.573z" fill="#231f20"/><path d="M32.721 69.573c8.857 6.387 34.029 48.921 34.029 48.921s-48.304-10.459-57.161-16.847S-1.27 82.902 5.117 74.044s18.747-10.859 27.603-4.47z" fill="#fff"/><path d="M66.433 119.959c-1.985-.43-48.714-10.6-57.721-17.096C-.8 96.002-2.959 82.68 3.901 73.166c3.323-4.609 8.243-7.648 13.852-8.556s11.236.422 15.845 3.746c9.007 6.495 33.408 47.625 34.443 49.373zm-45.24-52.627c-.982 0-1.971.079-2.96.239A18.15 18.15 0 0 0 6.334 74.92c-5.892 8.172-4.038 19.615 4.133 25.509 7.164 5.167 42.089 13.334 53.202 15.842-5.887-9.753-24.662-40.316-31.826-45.482a18.134 18.134 0 0 0-10.651-3.457z" fill="#231f20"/><path d="M140.905 63.003c-6.387 8.857-48.921 34.029-48.921 34.029s10.459-48.304 16.847-57.161 18.745-10.859 27.603-4.472 10.859 18.747 4.47 27.603z" fill="#fff"/><path d="m92.749 98.323-2.23-1.608c.43-1.985 10.6-48.714 17.096-57.721 6.862-9.513 20.183-11.67 29.697-4.811 4.609 3.323 7.648 8.243 8.556 13.852s-.422 11.237-3.746 15.845c-6.495 9.007-47.625 33.408-49.373 34.443zm32.145-65.151c-5.678 0-11.278 2.631-14.846 7.577-5.167 7.164-13.334 42.09-15.842 53.202 9.753-5.887 40.316-24.662 45.482-31.826a18.157 18.157 0 0 0 3.218-13.611 18.15 18.15 0 0 0-7.349-11.899 18.18 18.18 0 0 0-10.663-3.445z" fill="#231f20"/><path d="M124.457 107.743c0 21.734-39.355 111.89-39.355 111.89s-39.353-90.155-39.353-111.89S63.368 68.388 85.104 68.39c21.733-.001 39.353 17.619 39.353 39.353z" fill="#fff"/><path d="M86.477 220.233h-2.75c-1.612-3.693-39.479-90.693-39.479-112.49 0-10.913 4.25-21.172 11.966-28.888S74.189 66.89 85.1 66.89h.003c10.911 0 21.171 4.249 28.887 11.965s11.966 17.976 11.966 28.888c0 21.797-37.868 108.797-39.48 112.49zM85.101 69.89c-10.111 0-19.616 3.937-26.765 11.086-7.15 7.15-11.087 16.656-11.087 26.767 0 18.889 30.902 91.918 37.854 108.106 6.952-16.188 37.855-89.217 37.855-108.106 0-10.111-3.938-19.617-11.088-26.767S95.214 69.889 85.104 69.89h-.002z" fill="#231f20"/><path d="m84.997 222.414-8.946-1.17-8.333-3.455-7.154-5.497-5.497-7.153-3.453-8.333-1.17-8.945v-27.4h69.108v27.4l-1.17 8.945-3.455 8.334-5.497 7.154-7.154 5.496-8.332 3.454z" fill="#ee4878"/><path d="M85.192 223.901h-.389l-8.947-1.17-.38-.102-8.333-3.455-.339-.196-7.154-5.497-.276-.276-5.497-7.154-.196-.34-3.454-8.333-.102-.38-1.182-9.14v-27.4l1.5-1.5h69.109l1.5 1.5-.013 27.594-1.17 8.945-.102.38-3.455 8.334-.196.339-5.497 7.153-.276.276-7.154 5.497-.34.196-8.333 3.454-.38.102-8.946 1.17zm-8.75-4.119 8.555 1.118 8.555-1.118 7.967-3.302 6.841-5.257 5.257-6.841 3.303-7.968 1.131-8.652V161.96H51.944v25.802l1.131 8.652 3.302 7.967 5.256 6.841 6.841 5.256 7.967 3.304z" fill="#231f20"/></svg></g><g transform="translate(718.0 141.0) rotate(0.0 34.5 34.5) scale(1.2792228257846827 1.2797210579027412)"><svg width="53.939" height="53.918" viewBox="0 0 53.939 53.918"><path d="M26.987.297c1.39 7.079 3.317 14.916 4.658 22.004 7.089 1.342 14.926 3.267 22.004 4.66-7.079 1.395-14.916 3.319-22.004 4.661-1.343 7.089-3.264 14.927-4.663 22.004-1.39-7.229-3.317-15.234-4.658-22.472C15.239 29.962 7.396 28.206.32 26.961c7.081-1.543 14.913-3.636 22.004-5.128 1.343-6.939 3.265-14.608 4.663-21.536z" fill="#fff"/><path d="M26.987.297c1.39 7.079 3.317 14.916 4.658 22.004 7.089 1.342 14.926 3.267 22.004 4.66-7.079 1.395-14.916 3.319-22.004 4.661-1.343 7.089-3.264 14.927-4.663 22.004-1.39-7.229-3.317-15.234-4.658-22.472C15.239 29.962 7.396 28.206.32 26.961c7.081-1.543 14.913-3.636 22.004-5.128 1.343-6.939 3.265-14.608 4.663-21.536z" fill="#fff"/><path d="m28.454 53.918-2.945-.008c-.647-3.365-1.427-6.973-2.181-10.463-.789-3.652-1.603-7.417-2.285-10.99-3.514-.611-7.219-1.35-10.811-2.066-3.393-.677-6.901-1.376-10.172-1.952L0 25.496c3.281-.715 6.797-1.567 10.197-2.39 3.603-.873 7.319-1.772 10.846-2.533.69-3.468 1.515-7.123 2.315-10.667.745-3.304 1.516-6.72 2.159-9.906l2.942.008c.647 3.296 1.427 6.83 2.182 10.248.79 3.576 1.604 7.264 2.286 10.764 3.518.686 7.225 1.504 10.821 2.298 3.399.75 6.914 1.526 10.192 2.172v2.943c-3.274.645-6.784 1.42-10.178 2.169-3.6.795-7.312 1.615-10.835 2.301-.69 3.542-1.515 7.276-2.314 10.897-.746 3.374-1.516 6.863-2.159 10.118zM7.623 26.814c1.07.211 2.138.424 3.195.635 3.925.783 7.983 1.592 11.755 2.227l1.226 1.206c.71 3.83 1.6 7.949 2.461 11.932.246 1.138.495 2.288.741 3.439.227-1.037.456-2.073.682-3.099.87-3.943 1.771-8.019 2.489-11.81l1.195-1.195c3.771-.714 7.827-1.609 11.748-2.475 1.07-.236 2.151-.475 3.233-.711-1.087-.238-2.173-.477-3.247-.714-3.917-.865-7.968-1.759-11.735-2.472l-1.195-1.195c-.709-3.749-1.599-7.779-2.46-11.677-.247-1.118-.496-2.248-.743-3.379-.228 1.019-.457 2.036-.684 3.043-.87 3.856-1.77 7.844-2.487 11.552l-1.164 1.183c-3.767.792-7.815 1.773-11.729 2.721-1.086.26-2.183.526-3.281.789z" fill="#231f20"/></svg></g><g transform="translate(87.0 303.0) rotate(0.0 33.5 33.5) scale(1.1894406078574091 1.18796432560861)"><svg width="56.329" height="56.399" viewBox="0 0 56.329 56.399"><path d="M28.163 55.891C23.682 43.419 12.916 32.755.521 28.163 12.932 23.696 23.832 12.991 28.166.491c4.333 12.5 15.232 23.207 27.642 27.674-12.395 4.592-23.162 15.255-27.645 27.726z" fill="#fff"/><path d="m29.575 56.399-2.823-.001C22.426 44.361 12.176 34.081 0 29.569l.013-2.817C12.131 22.391 22.626 11.89 26.75.001h2.834c4.122 11.89 14.615 22.392 26.732 26.754l.013 2.817c-12.176 4.51-22.427 14.789-26.754 26.827zM4.442 28.177c10.327 4.814 19.02 13.522 23.721 23.755 4.702-10.233 13.396-18.938 23.724-23.753-10.285-4.728-19.114-13.537-23.72-23.659-4.61 10.122-13.439 18.931-23.725 23.657z" fill="#231f20"/></svg></g><g transform="translate(857.0 454.0) rotate(25.108445905955108 39.5 50.0) scale(1.3479848479677847 1.3422098142381615)"><svg width="58.606" height="74.504" viewBox="0 0 58.606 74.504"><path d="M2.414 65.031a32306.161 32306.161 0 0 0 36.537-49.257c.298-.363 10.144-13.85 10.263-13.424 1.742-1.148 4.212-1.14 5.931.06l-.012.016.012-.016-.012.016.012-.016-.012.016c2.154 1.628 2.601 4.843 1.058 7.042-8.166 10.952-19.25 25.979-27.416 36.929a8250.725 8250.725 0 0 1-18.272 24.634c-1.602 2.15-4.861 2.603-7.042 1.058l.012-.016-.013.016.012-.016-.012.016.012-.016C1.308 70.46.879 67.22 2.414 65.031z" fill="#fff"/><path d="M6.404 74.504a6.572 6.572 0 0 1-3.81-1.191l-.008-.05-.01.013c-2.768-2.063-3.404-6.233-1.39-9.106l.024-.034a32303.849 32303.849 0 0 0 36.536-49.255c.126-.161.577-.774 1.243-1.675C46.212 3.425 47.812 1.258 48.738.884c2.234-1.275 5.165-1.171 7.267.296l.013.078.021-.028c2.798 2.115 3.418 6.197 1.382 9.1-4.11 5.512-8.923 12.008-13.737 18.503a8032.353 8032.353 0 0 1-13.706 18.461 8294.384 8294.384 0 0 1-18.272 24.634c-1.252 1.679-3.27 2.576-5.302 2.576zm-2.031-3.607c1.544 1.056 3.833.707 4.927-.762a8473.522 8473.522 0 0 0 18.269-24.628c4.085-5.478 8.895-11.969 13.705-18.46A7960.057 7960.057 0 0 1 54.991 8.572c1.075-1.534.739-3.816-.76-4.949l-.004-.025c-1.209-.804-2.958-.805-4.186.004l-.009-.002c-1.086 1.172-6.736 8.822-8.63 11.388-.737.997-1.227 1.659-1.291 1.737a31546.158 31546.158 0 0 1-36.48 49.183c-1.075 1.552-.733 3.867.738 4.963zm44.6-67.694-.166.584c.533.147.976-.031 1.209-.193z" fill="#231f20"/></svg></g><g transform="translate(184.0 494.0) rotate(-55.55968813122158 30.0 37.5) scale(1.023785960481862 1.0066573606786213)"><svg width="58.606" height="74.504" viewBox="0 0 58.606 74.504"><path d="M2.414 65.031a32306.161 32306.161 0 0 0 36.537-49.257c.298-.363 10.144-13.85 10.263-13.424 1.742-1.148 4.212-1.14 5.931.06l-.012.016.012-.016-.012.016.012-.016-.012.016c2.154 1.628 2.601 4.843 1.058 7.042-8.166 10.952-19.25 25.979-27.416 36.929a8250.725 8250.725 0 0 1-18.272 24.634c-1.602 2.15-4.861 2.603-7.042 1.058l.012-.016-.013.016.012-.016-.012.016.012-.016C1.308 70.46.879 67.22 2.414 65.031z" fill="#fff"/><path d="M6.404 74.504a6.572 6.572 0 0 1-3.81-1.191l-.008-.05-.01.013c-2.768-2.063-3.404-6.233-1.39-9.106l.024-.034a32303.849 32303.849 0 0 0 36.536-49.255c.126-.161.577-.774 1.243-1.675C46.212 3.425 47.812 1.258 48.738.884c2.234-1.275 5.165-1.171 7.267.296l.013.078.021-.028c2.798 2.115 3.418 6.197 1.382 9.1-4.11 5.512-8.923 12.008-13.737 18.503a8032.353 8032.353 0 0 1-13.706 18.461 8294.384 8294.384 0 0 1-18.272 24.634c-1.252 1.679-3.27 2.576-5.302 2.576zm-2.031-3.607c1.544 1.056 3.833.707 4.927-.762a8473.522 8473.522 0 0 0 18.269-24.628c4.085-5.478 8.895-11.969 13.705-18.46A7960.057 7960.057 0 0 1 54.991 8.572c1.075-1.534.739-3.816-.76-4.949l-.004-.025c-1.209-.804-2.958-.805-4.186.004l-.009-.002c-1.086 1.172-6.736 8.822-8.63 11.388-.737.997-1.227 1.659-1.291 1.737a31546.158 31546.158 0 0 1-36.48 49.183c-1.075 1.552-.733 3.867.738 4.963zm44.6-67.694-.166.584c.533.147.976-.031 1.209-.193z" fill="#231f20"/></svg></g><g transform="translate(560.0 173.0) rotate(0.0 6.0 6.0) scale(0.8830671866951211 0.870258902023352)"><svg width="13.589" height="13.789" viewBox="0 0 13.589 13.789"><path d="M6.795 12.289c-.119 0-.237-.014-.354-.042l-1.173-.285a1.511 1.511 0 0 1-.216-.07l-1.116-.459a1.492 1.492 0 0 1-.573-.417l-.781-.92a1.383 1.383 0 0 1-.132-.182l-.636-1.027a1.51 1.51 0 0 1-.221-.677l-.09-1.204a1.66 1.66 0 0 1 0-.223l.09-1.204a1.51 1.51 0 0 1 .221-.677l.635-1.027c.039-.064.083-.125.132-.182l.781-.92a1.5 1.5 0 0 1 .573-.417l1.116-.459c.07-.029.143-.052.216-.07l1.173-.285a1.518 1.518 0 0 1 .709 0l1.173.285c.073.018.146.041.216.07l1.116.459c.222.091.419.234.574.417l.78.92c.048.057.092.117.131.181l.635 1.026c.127.205.202.437.221.677l.09 1.204a1.66 1.66 0 0 1 0 .223l-.09 1.204a1.51 1.51 0 0 1-.221.677l-.635 1.027a1.462 1.462 0 0 1-.131.181l-.78.92a1.503 1.503 0 0 1-.574.417l-1.116.459c-.07.029-.143.052-.216.07l-1.173.285a1.42 1.42 0 0 1-.354.045z" fill="#fff"/><path d="m6.794 3 1.173.285 1.116.458.781.92.635 1.027.09 1.204-.09 1.204-.635 1.027-.781.92-1.116.459-1.173.285-1.173-.285-1.116-.459-.781-.92-.634-1.027L3 6.894l.09-1.204.635-1.026.781-.92 1.116-.459zm0-3c-.237 0-.475.028-.707.084L4.914.369A3.011 3.011 0 0 0 4.48.51L3.364.969a3.006 3.006 0 0 0-1.147.834l-.781.92a3.223 3.223 0 0 0-.263.363L.538 4.112a3.01 3.01 0 0 0-.44 1.355l-.09 1.204a3.018 3.018 0 0 0 0 .446l.09 1.204c.036.48.187.945.44 1.355l.635 1.026c.079.127.167.248.264.362l.781.92c.31.366.704.652 1.147.834l1.116.459c.141.058.286.105.433.141l1.173.285a3.02 3.02 0 0 0 1.416 0l1.173-.285c.148-.036.293-.083.433-.141l1.116-.459a2.988 2.988 0 0 0 1.147-.834l.781-.92c.097-.114.185-.235.264-.362l.635-1.026a3.01 3.01 0 0 0 .44-1.355l.09-1.204a3.018 3.018 0 0 0 0-.446l-.09-1.204a3.002 3.002 0 0 0-.44-1.354l-.635-1.027a3.029 3.029 0 0 0-.264-.363l-.781-.92a2.991 2.991 0 0 0-1.148-.834L9.107.51a3.114 3.114 0 0 0-.432-.141L7.502.084A3.026 3.026 0 0 0 6.794 0z" fill="#231f20"/></svg></g><g transform="translate(171.0 564.0) rotate(0.0 12.5 12.5) scale(1.0380766515799527 1.032204789430223)"><svg width="24.083" height="24.22" viewBox="0 0 24.083 24.22"><path d="M12.041 22.72c-.095 0-.189-.009-.283-.027l-2.791-.537a1.468 1.468 0 0 1-.349-.113l-2.576-1.198a1.502 1.502 0 0 1-.463-.334l-1.943-2.073a1.527 1.527 0 0 1-.215-.295l-1.385-2.482a1.518 1.518 0 0 1-.18-.549l-.346-2.821a1.486 1.486 0 0 1 0-.365l.346-2.821c.024-.193.085-.379.179-.548l1.384-2.481c.061-.105.133-.204.217-.294L5.58 3.709c.131-.14.287-.253.462-.334l2.576-1.198c.11-.052.228-.09.349-.113l2.791-.537a1.507 1.507 0 0 1 .566 0l2.79.537c.121.023.237.061.349.113l2.577 1.198c.174.081.331.194.463.334l1.943 2.073c.083.089.156.188.216.295l1.384 2.482c.094.169.154.355.179.547l.347 2.821c.015.122.015.245 0 .366l-.347 2.821a1.512 1.512 0 0 1-.179.547l-1.384 2.481a1.575 1.575 0 0 1-.216.295l-1.943 2.073c-.132.14-.288.254-.463.334l-2.577 1.198a1.515 1.515 0 0 1-.349.113l-2.79.537a1.407 1.407 0 0 1-.283.028z" fill="#fff"/><path d="m12.041 3 2.791.538 2.577 1.197 1.943 2.073 1.384 2.481.347 2.821-.347 2.82-1.384 2.481-1.943 2.073-2.577 1.198-2.791.537-2.791-.537-2.577-1.198-1.943-2.073-1.384-2.482L3 12.11l.347-2.82L4.73 6.808l1.943-2.073L9.25 3.537zm0-3c-.19 0-.38.018-.568.054l-2.79.538a2.987 2.987 0 0 0-.697.225L5.409 2.015a2.994 2.994 0 0 0-.924.669L2.542 4.756a3.018 3.018 0 0 0-.432.591L.727 7.829c-.189.338-.31.71-.357 1.095l-.347 2.821c-.03.243-.03.489 0 .732l.347 2.82c.047.384.169.756.357 1.095l1.384 2.482c.119.214.264.413.432.591l1.943 2.073c.262.28.576.507.924.668l2.577 1.198c.223.104.457.179.698.226l2.791.537a3 3 0 0 0 1.134 0l2.791-.537a3.01 3.01 0 0 0 .698-.225l2.577-1.198c.348-.162.662-.389.924-.669l1.943-2.073c.167-.179.312-.377.431-.591l1.384-2.481c.189-.338.31-.71.357-1.095l.347-2.82a2.98 2.98 0 0 0 0-.731l-.347-2.821a2.997 2.997 0 0 0-.358-1.096l-1.384-2.481a3.007 3.007 0 0 0-.431-.59l-1.943-2.073a3.002 3.002 0 0 0-.925-.669L16.097.82A2.987 2.987 0 0 0 15.4.595L12.609.057A2.792 2.792 0 0 0 12.041 0z" fill="#231f20"/></svg></g><g transform="translate(533.0 194.0) rotate(0.0 12.5 12.5) scale(1.0380766515799527 1.032204789430223)"><svg width="24.083" height="24.22" viewBox="0 0 24.083 24.22"><path d="M12.041 22.72c-.095 0-.189-.009-.283-.027l-2.791-.537a1.468 1.468 0 0 1-.349-.113l-2.576-1.198a1.502 1.502 0 0 1-.463-.334l-1.943-2.073a1.527 1.527 0 0 1-.215-.295l-1.385-2.482a1.518 1.518 0 0 1-.18-.549l-.346-2.821a1.486 1.486 0 0 1 0-.365l.346-2.821c.024-.193.085-.379.179-.548l1.384-2.481c.061-.105.133-.204.217-.294L5.58 3.709c.131-.14.287-.253.462-.334l2.576-1.198c.11-.052.228-.09.349-.113l2.791-.537a1.507 1.507 0 0 1 .566 0l2.79.537c.121.023.237.061.349.113l2.577 1.198c.174.081.331.194.463.334l1.943 2.073c.083.089.156.188.216.295l1.384 2.482c.094.169.154.355.179.547l.347 2.821c.015.122.015.245 0 .366l-.347 2.821a1.512 1.512 0 0 1-.179.547l-1.384 2.481a1.575 1.575 0 0 1-.216.295l-1.943 2.073c-.132.14-.288.254-.463.334l-2.577 1.198a1.515 1.515 0 0 1-.349.113l-2.79.537a1.407 1.407 0 0 1-.283.028z" fill="#fff"/><path d="m12.041 3 2.791.538 2.577 1.197 1.943 2.073 1.384 2.481.347 2.821-.347 2.82-1.384 2.481-1.943 2.073-2.577 1.198-2.791.537-2.791-.537-2.577-1.198-1.943-2.073-1.384-2.482L3 12.11l.347-2.82L4.73 6.808l1.943-2.073L9.25 3.537zm0-3c-.19 0-.38.018-.568.054l-2.79.538a2.987 2.987 0 0 0-.697.225L5.409 2.015a2.994 2.994 0 0 0-.924.669L2.542 4.756a3.018 3.018 0 0 0-.432.591L.727 7.829c-.189.338-.31.71-.357 1.095l-.347 2.821c-.03.243-.03.489 0 .732l.347 2.82c.047.384.169.756.357 1.095l1.384 2.482c.119.214.264.413.432.591l1.943 2.073c.262.28.576.507.924.668l2.577 1.198c.223.104.457.179.698.226l2.791.537a3 3 0 0 0 1.134 0l2.791-.537a3.01 3.01 0 0 0 .698-.225l2.577-1.198c.348-.162.662-.389.924-.669l1.943-2.073c.167-.179.312-.377.431-.591l1.384-2.481c.189-.338.31-.71.357-1.095l.347-2.82a2.98 2.98 0 0 0 0-.731l-.347-2.821a2.997 2.997 0 0 0-.358-1.096l-1.384-2.481a3.007 3.007 0 0 0-.431-.59l-1.943-2.073a3.002 3.002 0 0 0-.925-.669L16.097.82A2.987 2.987 0 0 0 15.4.595L12.609.057A2.792 2.792 0 0 0 12.041 0z" fill="#231f20"/></svg></g><g transform="translate(893.0 182.0) rotate(0.0 12.5 12.5) scale(1.0380766515799527 1.032204789430223)"><svg width="24.083" height="24.22" viewBox="0 0 24.083 24.22"><path d="M12.041 22.72c-.095 0-.189-.009-.283-.027l-2.791-.537a1.468 1.468 0 0 1-.349-.113l-2.576-1.198a1.502 1.502 0 0 1-.463-.334l-1.943-2.073a1.527 1.527 0 0 1-.215-.295l-1.385-2.482a1.518 1.518 0 0 1-.18-.549l-.346-2.821a1.486 1.486 0 0 1 0-.365l.346-2.821c.024-.193.085-.379.179-.548l1.384-2.481c.061-.105.133-.204.217-.294L5.58 3.709c.131-.14.287-.253.462-.334l2.576-1.198c.11-.052.228-.09.349-.113l2.791-.537a1.507 1.507 0 0 1 .566 0l2.79.537c.121.023.237.061.349.113l2.577 1.198c.174.081.331.194.463.334l1.943 2.073c.083.089.156.188.216.295l1.384 2.482c.094.169.154.355.179.547l.347 2.821c.015.122.015.245 0 .366l-.347 2.821a1.512 1.512 0 0 1-.179.547l-1.384 2.481a1.575 1.575 0 0 1-.216.295l-1.943 2.073c-.132.14-.288.254-.463.334l-2.577 1.198a1.515 1.515 0 0 1-.349.113l-2.79.537a1.407 1.407 0 0 1-.283.028z" fill="#fff"/><path d="m12.041 3 2.791.538 2.577 1.197 1.943 2.073 1.384 2.481.347 2.821-.347 2.82-1.384 2.481-1.943 2.073-2.577 1.198-2.791.537-2.791-.537-2.577-1.198-1.943-2.073-1.384-2.482L3 12.11l.347-2.82L4.73 6.808l1.943-2.073L9.25 3.537zm0-3c-.19 0-.38.018-.568.054l-2.79.538a2.987 2.987 0 0 0-.697.225L5.409 2.015a2.994 2.994 0 0 0-.924.669L2.542 4.756a3.018 3.018 0 0 0-.432.591L.727 7.829c-.189.338-.31.71-.357 1.095l-.347 2.821c-.03.243-.03.489 0 .732l.347 2.82c.047.384.169.756.357 1.095l1.384 2.482c.119.214.264.413.432.591l1.943 2.073c.262.28.576.507.924.668l2.577 1.198c.223.104.457.179.698.226l2.791.537a3 3 0 0 0 1.134 0l2.791-.537a3.01 3.01 0 0 0 .698-.225l2.577-1.198c.348-.162.662-.389.924-.669l1.943-2.073c.167-.179.312-.377.431-.591l1.384-2.481c.189-.338.31-.71.357-1.095l.347-2.82a2.98 2.98 0 0 0 0-.731l-.347-2.821a2.997 2.997 0 0 0-.358-1.096l-1.384-2.481a3.007 3.007 0 0 0-.431-.59l-1.943-2.073a3.002 3.002 0 0 0-.925-.669L16.097.82A2.987 2.987 0 0 0 15.4.595L12.609.057A2.792 2.792 0 0 0 12.041 0z" fill="#231f20"/></svg></g></svg>