<svg xmlns="http://www.w3.org/2000/svg" version="1.1" xmlns:xlink="http://www.w3.org/1999/xlink" xmlns:svgjs="http://svgjs.com/svgjs" width="1440" height="560" preserveAspectRatio="none" viewBox="0 0 1440 560"><g mask="url(&quot;#SvgjsMask1000&quot;)" fill="none"><rect width="1440" height="560" x="0" y="0" fill="#0e2a47"></rect><path d="M160.52 342.1L177.6 342.1L177.6 359.18L160.52 359.18z" fill="#e73635"></path><path d="M650.62 55.7 a7.18 7.18 0 1 0 14.36 0 a7.18 7.18 0 1 0 -14.36 0z" stroke="#037b0b"></path><path d="M284.32 275.6 a52.69 52.69 0 1 0 105.38 0 a52.69 52.69 0 1 0 -105.38 0z" stroke="#e73635"></path><path d="M1025.33 471.63L1050.12 471.63L1050.12 496.42L1025.33 496.42z" stroke="#d3b714"></path><path d="M772.97 196.29 a33.96 33.96 0 1 0 67.92 0 a33.96 33.96 0 1 0 -67.92 0z" stroke="#037b0b"></path><path d="M425.52 244.43L451.12 244.43L451.12 270.03L425.52 270.03z" fill="#d3b714"></path><path d="M210.22 211.54 a55.36 55.36 0 1 0 110.72 0 a55.36 55.36 0 1 0 -110.72 0z" fill="#037b0b"></path><path d="M914.48 488.09 a46.7 46.7 0 1 0 93.4 0 a46.7 46.7 0 1 0 -93.4 0z" fill="#d3b714"></path><path d="M955.67 20.84 a6.29 6.29 0 1 0 12.58 0 a6.29 6.29 0 1 0 -12.58 0z" fill="#e73635"></path><path d="M58.37 473.32 a32.27 32.27 0 1 0 64.54 0 a32.27 32.27 0 1 0 -64.54 0z" fill="#e73635"></path><path d="M277.78 363.93L314.56 363.93L314.56 400.71L277.78 400.71z" stroke="#e73635"></path><path d="M479.81 129.12 a27.75 27.75 0 1 0 55.5 0 a27.75 27.75 0 1 0 -55.5 0z" fill="#d3b714"></path><path d="M203.1 553.26L257.49 553.26L257.49 607.65L203.1 607.65z" fill="#d3b714"></path><path d="M1289.06 60.55a33.63 33.63 0 1 0-24.36 62.69z" stroke="#037b0b"></path><path d="M605.36 324.94 a43.09 43.09 0 1 0 86.18 0 a43.09 43.09 0 1 0 -86.18 0z" fill="#e73635"></path><path d="M662.76 288.54 a36.98 36.98 0 1 0 73.96 0 a36.98 36.98 0 1 0 -73.96 0z" stroke="#e73635"></path><path d="M950.83 102.98 a55.64 55.64 0 1 0 111.28 0 a55.64 55.64 0 1 0 -111.28 0z" stroke="#e73635"></path><path d="M314.72 512.55L368.88 512.55L368.88 566.71L314.72 566.71z" fill="#d3b714"></path><path d="M489.12 421.58 a25.2 25.2 0 1 0 50.4 0 a25.2 25.2 0 1 0 -50.4 0z" fill="#d3b714"></path><path d="M560.1 131.13L594.24 131.13L594.24 165.27L560.1 165.27z" stroke="#d3b714"></path><path d="M485.1 328.12L528.43 328.12L528.43 347.58L485.1 347.58z" fill="#037b0b"></path><path d="M1253.12 503.31a32.23 32.23 0 1 0-63.99-7.72z" fill="#d3b714"></path><path d="M713.43 330.37L747.59 330.37L747.59 364.53L713.43 364.53z" fill="#e73635"></path><path d="M844.04 51.18L896.49 51.18L896.49 90.03L844.04 90.03z" fill="#d3b714"></path><path d="M716.21 481.72a36.51 36.51 0 1 0-67.26-28.42z" stroke="#037b0b"></path><path d="M536.84 539.99L547.31 539.99L547.31 550.46L536.84 550.46z" fill="#037b0b"></path><path d="M206.46 203.02 a24.64 24.64 0 1 0 49.28 0 a24.64 24.64 0 1 0 -49.28 0z" stroke="#037b0b"></path><path d="M636.48 326.05L666.68 326.05L666.68 360.41L636.48 360.41z" fill="#e73635"></path><path d="M1015.2 474.19 a17.25 17.25 0 1 0 34.5 0 a17.25 17.25 0 1 0 -34.5 0z" stroke="#d3b714"></path><path d="M702.37 189.1L745.98 189.1L745.98 232.71L702.37 232.71z" fill="#e73635"></path><path d="M633.37 388.85L662.18 388.85L662.18 409.25L633.37 409.25z" fill="#e73635"></path><path d="M842.13 254.18 a55.37 55.37 0 1 0 110.74 0 a55.37 55.37 0 1 0 -110.74 0z" stroke="#e73635"></path><path d="M1394.74 458.95a44.59 44.59 0 1 0 31.52 83.42z" stroke="#e73635"></path></g><defs><mask id="SvgjsMask1000"><rect width="1440" height="560" fill="#ffffff"></rect></mask></defs></svg>