<svg xmlns="http://www.w3.org/2000/svg" viewBox="0 0 800 600" width="800" height="600"><g transform="translate(262.0 505.0) rotate(0.0 131.5 9.0) scale(0.8654447332916516 0.9)"><svg width="303.89" height="20" viewBox="0 0 303.89 20"><path d="M20.03 20h263.86c11.046 0 20-8.954 20-20H0c0 11.046 8.954 20 20 20z" fill="#eff0f2"/></svg></g><g fill-opacity=".64" transform="translate(628.0 195.0) rotate(-21.06215013094449 68.0 56.0) scale(0.7984547552090366 0.7918272119905264)"><svg width="170.329" height="141.445" viewBox="0 0 170.329 141.445"><path d="M170.329 9.577S151.481.213 129.661 0c-.513 7.942-2.878 15.682-6.296 22.847 1.938-7.402 2.74-15.149 1.794-22.755-10.261.52-20.512 3.677-30.194 6.909 3.097 8.453 3.43 17.85 2.394 26.713-.627-8.595-2.639-17.612-7.265-24.998-13.43 4.988-24.752 11.495-37.08 22.147 6.242 9.172 10.189 19.409 8.903 30.597-.849-10.484-6.168-19.129-13.556-26.416-8.156 7.633-15.222 15.88-21.666 24.81 7.008 7.191 13.552 14.392 18.806 22.923-6.766-6.893-14.427-12.281-22.562-17.536C17.281 73.617 12.06 82.57 6.926 92.155c8.195 4.521 15.862 9.311 22.847 15.494-8.194-4.482-16.755-7.394-25.76-9.977-3.947 4.62-4.983 9.835-3.106 15.645 7.942 2.296 15.533 4.995 22.808 8.901-6.732-1.888-13.557-2.833-20.531-3.326 4.982 10.615 13.652 22.554 13.652 22.554 33.413-2.718 34.698-11.17 53.747-37.491-9.959-3.638-19.983-7.056-30.551-8.249 11.602-1.072 23.208.487 34.671 2.264l.444-.061c7.642-9.794 15.428-17.674 24.647-25.262-7.375-7.305-14.936-14.399-23.85-19.776 10.484 3.689 19.862 9.58 29.152 15.61a157.663 157.663 0 0 1 10.962-7.565c-6.483-8.233-13.157-16.293-21.421-22.785 10.052 4.998 18.705 12.09 27.269 19.286 26.698-15.249 37.156-17.954 48.423-47.84z" fill="#e4e4e8"/></svg></g><g transform="translate(68.0 223.0) rotate(0.0 65.0 51.0) scale(0.99601593625498 0.9948307812347605)"><svg width="130.52" height="102.53" viewBox="0 0 130.52 102.53"><g fill="#eff0f2"><ellipse cx="65.26" cy="42.471" rx="6.674" ry="42.471"/><path d="M73.948 64.549C71.266 46.13 81.61 26.42 100.126 13.702c1.681-1.154.726-3.791-1.305-3.61-7.966.711-20.803 4.225-28.467 18.591-10.022 18.786.293 36.96.293 36.96zm-17.376 0C59.254 46.13 48.91 26.42 30.394 13.702c-1.681-1.154-.726-3.791 1.305-3.61 7.966.711 20.803 4.225 28.467 18.591 10.022 18.786-.293 36.96-.293 36.96z"/><path d="M74.437 57.887c4.301-15.787 19.554-28.043 38.94-31.798 1.76-.341 1.915-2.801.215-3.368-6.67-2.222-18.249-3.894-29.467 4.996-14.67 11.626-12.733 29.894-12.733 29.894zm-18.354 0C51.782 42.1 36.528 29.844 17.143 26.09c-1.76-.341-1.915-2.801-.215-3.368 6.67-2.222 18.249-3.894 29.467 4.996C61.064 39.343 59.127 57.61 59.127 57.61z"/><path d="M70.483 58.422c14.091-12.339 36.397-14.381 57.266-5.697 1.894.788 3.599-1.46 2.336-3.077-4.957-6.34-14.946-15.261-31.272-13.878-21.349 1.809-31.059 20.461-31.059 20.461zm-10.446 0C45.945 46.083 23.64 44.041 2.771 52.725c-1.894.788-3.599-1.46-2.336-3.077 4.957-6.34 14.946-15.261 31.272-13.878 21.349 1.809 31.059 20.461 31.059 20.461z"/><path d="M42.973 49.239c-5.576 5.653-9.021 13.414-9.021 21.982 0 17.291 14.017 31.308 31.308 31.308s31.308-14.017 31.308-31.308c0-8.568-3.445-16.329-9.021-21.982z"/><path d="M65.217 46.567c15.351-2.482 31.951 5.901 42.817 21.201.986 1.389 3.177.557 2.998-1.137-.698-6.645-3.801-17.322-15.902-23.536-15.824-8.126-30.87.729-30.87.729z"/><path d="M65.303 46.567c-15.351-2.482-31.951 5.901-42.817 21.201-.986 1.389-3.177.557-2.998-1.137.698-6.645 3.801-17.322 15.902-23.536 15.824-8.126 30.87.729 30.87.729zM49.865 90.23h30.79v12.218h-30.79z"/></g></svg></g><g transform="translate(633.0 223.0) rotate(8.486170233569599 68.0 56.0) scale(0.7984547552090366 0.7918272119905264)"><svg width="170.329" height="141.445" viewBox="0 0 170.329 141.445"><path d="M170.329 9.577S151.481.213 129.661 0c-.513 7.942-2.878 15.682-6.296 22.847 1.938-7.402 2.74-15.149 1.794-22.755-10.261.52-20.512 3.677-30.194 6.909 3.097 8.453 3.43 17.85 2.394 26.713-.627-8.595-2.639-17.612-7.265-24.998-13.43 4.988-24.752 11.495-37.08 22.147 6.242 9.172 10.189 19.409 8.903 30.597-.849-10.484-6.168-19.129-13.556-26.416-8.156 7.633-15.222 15.88-21.666 24.81 7.008 7.191 13.552 14.392 18.806 22.923-6.766-6.893-14.427-12.281-22.562-17.536C17.281 73.617 12.06 82.57 6.926 92.155c8.195 4.521 15.862 9.311 22.847 15.494-8.194-4.482-16.755-7.394-25.76-9.977-3.947 4.62-4.983 9.835-3.106 15.645 7.942 2.296 15.533 4.995 22.808 8.901-6.732-1.888-13.557-2.833-20.531-3.326 4.982 10.615 13.652 22.554 13.652 22.554 33.413-2.718 34.698-11.17 53.747-37.491-9.959-3.638-19.983-7.056-30.551-8.249 11.602-1.072 23.208.487 34.671 2.264l.444-.061c7.642-9.794 15.428-17.674 24.647-25.262-7.375-7.305-14.936-14.399-23.85-19.776 10.484 3.689 19.862 9.58 29.152 15.61a157.663 157.663 0 0 1 10.962-7.565c-6.483-8.233-13.157-16.293-21.421-22.785 10.052 4.998 18.705 12.09 27.269 19.286 26.698-15.249 37.156-17.954 48.423-47.84z" fill="#e4e4e8"/></svg></g><g transform="translate(68.0 321.0) rotate(0.0 335.5 4.5) scale(1.0285306114315584 0.9174311926605504)"><svg width="652.387" height="9.81" viewBox="0 0 652.387 9.81"><path d="M0 0h652.387v9.81H0z" fill="#002652"/></svg></g><g transform="translate(254.0 106.0) rotate(0.0 146.5 107.5) scale(0.999461041486161 0.9995722760493184)"><svg width="293.158" height="215.092" viewBox="0 0 293.158 215.092"><path d="m189.767 212.26-1.988-1.012a22.464 22.464 0 0 1-12.273-20.02V121.64h-57.854v69.588a22.464 22.464 0 0 1-12.273 20.02l-1.988 1.012c-1.403.714-.895 2.832.679 2.832h85.018c1.574 0 2.082-2.118.679-2.832z" fill="#bedbff"/><path d="M285.669 0H7.488A7.489 7.489 0 0 0 0 7.488v155.757a7.488 7.488 0 0 0 7.488 7.488h278.181a7.488 7.488 0 0 0 7.488-7.488V7.488A7.487 7.487 0 0 0 285.669 0z" fill="#a6ccf8"/><path d="M293.158 144.424H0v18.821a7.488 7.488 0 0 0 7.488 7.488h278.181a7.488 7.488 0 0 0 7.488-7.488v-18.821zM10.557 10.135H282.6v124.281H10.557z" fill="#d4e7ff"/><path d="M149.496 163.869h-5.834a3.004 3.004 0 0 1-2.995-2.995v-5.834a3.004 3.004 0 0 1 2.995-2.995h5.834a3.004 3.004 0 0 1 2.995 2.995v5.834a3.004 3.004 0 0 1-2.995 2.995z" fill="#f4f9ff"/><path d="M31.036 24.097h5.971v5.971h-5.971zm12.256-.157h33.94v5.971h-33.94zm44.31 0h20.741v5.971H87.602zm30.797 0h32.368v5.971h-32.368z" fill="#fff"/><path d="M160.824 23.94h32.368v5.971h-32.368z" fill="#2888ff"/><path d="M202.934 23.94h55.309v5.971h-55.309zM31.036 39.81h5.971v5.971h-5.971zm12.256-.157h20.083v5.971H43.292z" fill="#fff"/><path d="M73.952 39.653h19.707v5.971H73.952zm28.315 0h48.5v5.971h-48.5z" fill="#2888ff"/><g fill="#fff"><path d="M31.036 55.523h5.971v5.971h-5.971zm12.256-.157h56.689v5.971H43.292zm66.421 0h41.055v5.971h-41.055zm51.111 0h19.753v5.971h-19.753zm29.287 0h68.132v5.971h-68.132zM44.036 71.236h5.971v5.971h-5.971zm12.256-.157h33.94v5.971h-33.94zm44.31 0h20.741v5.971h-20.741z"/><path d="M118.399 71.079h32.368v5.971h-32.368zm42.425 0h32.368v5.971h-32.368z"/></g><path d="M202.934 71.079h29.309v5.971h-29.309z" fill="#016eea"/><path d="M44.036 86.949h5.971v5.971h-5.971z" fill="#fff"/><path d="M56.292 86.791h33.94v5.971h-33.94z" fill="#016eea"/><path d="M87.602 86.791h20.741v5.971H87.602zm30.797 0h32.368v5.971h-32.368zm42.425 0h32.368v5.971h-32.368z" fill="#fff"/><path d="M31.036 102.661h5.971v5.971h-5.971z" fill="#2888ff"/><path d="M43.292 102.504h14.913v5.971H43.292zm23.628 0h41.423v5.971H66.92z" fill="#7eb8ff"/><path d="M118.399 102.504h32.368v5.971h-32.368zm42.425 0h32.368v5.971h-32.368zm42.11 0h26.642v5.971h-26.642z" fill="#fff"/><path d="M31.036 118.374h5.971v5.971h-5.971z" fill="#2888ff"/><path d="M43.292 118.217h33.94v5.971h-33.94z" fill="#7eb8ff"/><path d="M87.602 118.217h20.741v5.971H87.602zm30.797 0h32.368v5.971h-32.368zm42.425 0h32.368v5.971h-32.368z" fill="#fff"/><path d="M202.934 118.217h55.309v5.971h-55.309z" fill="#7eb8ff"/></svg></g><g transform="translate(563.0 104.0) rotate(0.0 62.5 108.5) scale(1.0 0.9956000899251694)"><svg width="125" height="217.959" viewBox="0 0 125 217.959"><path d="m101.067 216.029-10.223-4.056a12 12 0 0 1-7.574-11.154v-66.112H41.731v66.112a12 12 0 0 1-7.575 11.154l-10.223 4.056c-1.025.407-.734 1.93.369 1.93h76.397c1.102 0 1.393-1.523.368-1.93z" fill="#bedbff"/><path d="M7 176c-1.654 0-3-1.346-3-3V7c0-1.654 1.346-3 3-3h111c1.654 0 3 1.346 3 3v166c0 1.654-1.346 3-3 3z" fill="#7eb8ff"/><path d="M117 8v164H8V8zm1-8H7a7 7 0 0 0-7 7v166a7 7 0 0 0 7 7h111a7 7 0 0 0 7-7V7a7 7 0 0 0-7-7z" fill="#a6ccf8"/><g fill="#fff"><path d="M16.964 21.129h5.971V27.1h-5.971zm12.256-.157h33.378v5.971H29.22zm39.585 0h41.055v5.971H68.805zm-38.841 15.87h5.971v5.971h-5.971zm12.256-.158h33.94v5.971H42.22zm44.31 0h20.741v5.971H86.53zm-56.566 64.512h5.971v5.971h-5.971zm12.256-.158h33.94v5.971H42.22zm44.31 0h20.741v5.971H86.53z"/></g><path d="M16.964 68.267h5.971v5.971h-5.971zm12.256-.157h14.913v5.971H29.22zm23.628 0h41.423v5.971H52.848z" fill="#2888ff"/></svg></g><g transform="translate(112.0 104.0) rotate(0.0 62.5 108.5) scale(1.0 0.9956000899251694)"><svg width="125" height="217.959" viewBox="0 0 125 217.959"><path d="m101.067 216.029-10.223-4.056a12 12 0 0 1-7.574-11.154v-66.112H41.731v66.112a12 12 0 0 1-7.575 11.154l-10.223 4.056c-1.025.407-.734 1.93.369 1.93h76.397c1.102 0 1.393-1.523.368-1.93z" fill="#bedbff"/><path d="M7 176c-1.654 0-3-1.346-3-3V7c0-1.654 1.346-3 3-3h111c1.654 0 3 1.346 3 3v166c0 1.654-1.346 3-3 3z" fill="#7eb8ff"/><path d="M117 8v164H8V8zm1-8H7a7 7 0 0 0-7 7v166a7 7 0 0 0 7 7h111a7 7 0 0 0 7-7V7a7 7 0 0 0-7-7z" fill="#a6ccf8"/><g fill="#fff"><path d="M17.297 21.129h5.971V27.1h-5.971zm12.256-.157h33.378v5.971H29.553zm39.585 0h41.055v5.971H69.138zm-51.841 96.657h5.971v5.971h-5.971zm12.256-.157h33.378v5.971H29.553zm39.585 0h41.055v5.971H69.138zm-38.841-80.63h5.971v5.971h-5.971zm12.256-.158h33.94v5.971h-33.94zm44.31 0h20.741v5.971H86.863zm-56.566 15.87h5.971v5.971h-5.971z"/></g><path d="M42.553 52.397h38.819v5.971H42.553z" fill="#016eea"/><path d="M85.79 52.397h20.741v5.971H85.79zm-55.493 80.132h5.971v5.971h-5.971zm12.256-.157h33.94v5.971h-33.94zm44.31 0h20.741v5.971H86.863zm-56.566 15.87h5.971v5.971h-5.971z" fill="#fff"/><path d="M42.553 148.084h38.819v5.971H42.553z" fill="#016eea"/><path d="M85.79 148.084h20.741v5.971H85.79z" fill="#fff"/><path d="M17.297 68.267h5.971v5.971h-5.971zm12.256-.157h14.913v5.971H29.553zm23.629 0h41.423v5.971H53.182zM17.297 83.98h5.971v5.971h-5.971zm12.256-.157h33.94v5.971h-33.94z" fill="#2888ff"/><path d="M73.863 83.823h20.741v5.971H73.863z" fill="#fff"/></svg></g><g transform="translate(522.0 252.0) rotate(0.0 59.0 34.5) scale(1.7877975243549535 1.7629024016351558)"><svg width="66.003" height="39.14" viewBox="0 0 66.003 39.14"><path d="M36.144 36.415h6.404L64.773 0h-6.404z" fill="#013b84"/><g fill="#2888ff"><path d="M39.878 39.14H3a3 3 0 0 1-3-3h42.878a3 3 0 0 1-3 3z"/><path d="M65.557 4.128 46.202 35.519a3 3 0 0 1-4.128.979L64.577 0a3 3 0 0 1 .98 4.128z"/></g></svg></g><g transform="translate(594.0 362.0) rotate(0.0 31.0 80.5) scale(0.9841738495483912 0.993876240802015)"><svg width="62.997" height="161.992" viewBox="0 0 62.997 161.992"><path d="M0 0h62.997v161.992H0z" fill="#eff0f2"/><g fill="#d2d3da"><path d="M12.341 12.199h38.314v4H12.341zm0 10.49h38.314v4H12.341zm0 10.491h38.314v4H12.341zm0 10.491h38.314v4H12.341z"/><circle cx="31.498" cy="135.527" r="6.842"/></g></svg></g><g transform="translate(300.0 166.0) rotate(0.0 116.0 173.5) scale(0.9997242140099283 0.9972553922202584)"><svg width="232.064" height="347.955" viewBox="0 0 232.064 347.955"><path d="m48.819 235.642 6.675 42.589 6.516 41.782 1.633 6.654s13.4-5.373 15.332-5.197c1.093.093 2.128.187 3.067.271 2.409.214 4.15.378 4.374.411l-.007-.696-.019-1.973-.135-15.502-.155-17.387 6.571-58.443-1.325-44.21-35.978-2.676-6.714 46.56a24.017 24.017 0 0 0 .165 7.817z" fill="#016eea"/><path d="M40.329 191.122c.824 12.689 11.25 22.62 23.964 22.825a25.558 25.558 0 0 0 7.733-1.067l48.01-14.338-.038-18.665c-.014-7.045-5.725-12.753-12.771-12.762l-68.463-.093z" fill="#016eea"/><path d="m70.629 213.584 22.506.363c2.617.042 21.615-.317 24.123-1.067l38.049 1.408-.687-18.134a26.93 26.93 0 0 0-15.947-22.989c-6.545-2.909-12.829-5.745-13.144-6.051l-57.921-.093z" fill="#016eea"/><path d="m70.603 41.319 26.454 1.996-3.95 52.362c-.096 1.271-1.681 1.79-2.51.822L68.396 70.577z" fill="#99644c"/><path d="M75.564 24.755c-.949-7.427 7.958-14.685 19.895-16.211 10.183-1.301 19.282 1.989 22.325 7.596.788 1.452-.179 3.242-1.818 3.452z" fill="#002652"/><path d="M75.857 14.042C75.049 7.719 82.632 1.54 92.794.241c8.669-1.108 16.415 1.694 19.006 6.466.671 1.236-.153 2.76-1.548 2.939z" fill="#002652"/><path d="m105.38 25.613 3.729 27.887c.339 3.311-2.647 5.991-5.902 5.298L73.02 52.369z" fill="#99644c"/><path d="m105.272 42.861 4.927-.75c2.053-.313 2.75-2.92 1.127-4.215l-7.099-5.669z" fill="#99644c"/><path d="m107.69 45.17-14.166 1.45-1.844-18.007 14.166-1.451z" fill="#c78982"/><path d="m80.369 7.577-6.685.854c-7.306.934-12.472 7.613-11.538 14.919l4.227 33.072 42.521-5.434-3.028-23.694C104.269 14.809 92.854 5.981 80.369 7.577z" fill="#99644c"/><path d="m106.001 30.763-3.236.414a1.427 1.427 0 0 0-.949.543l-1.175 1.519c-.779 1.007.049 2.453 1.311 2.292l4.695-.6" fill="#1d2445" opacity=".1"/><path d="m89.076 37.944.64 5.01a11.658 11.658 0 0 0 8.349 9.728 6.614 6.614 0 0 1 5.722-7.399l4.306-.55 1.167 9.133c.426 3.329-2.634 6.043-5.889 5.222l-12.899-3.252a4.763 4.763 0 0 1-3.56-4.015l-2.205-17.257a3.906 3.906 0 0 1 4.369 3.38z" fill="#002652"/><path d="m104.104 52.842 3.35.335a1.392 1.392 0 0 0 1.519-1.562l-.503-3.934-3.118.398a3.047 3.047 0 0 0-2.637 3.41c.091.72.667 1.28 1.389 1.353z" fill="#99644c"/><path d="m69.68 52.714 11.099 3.324-5.682-44.461a4.763 4.763 0 0 0-5.328-4.121l-2.125.272c-10.125 1.294-16.72 11.301-13.916 21.115l3.101 10.853A19.051 19.051 0 0 0 69.68 52.714z" fill="#002652"/><path d="m79.095 33.658 20.946-2.677.029-3.525-21.418 2.737z" fill="#80b6f4"/><path d="m65.554 14.055 16.535-2.113 5.114 40.017a3.688 3.688 0 0 1-3.191 4.126l-12.877 1.646z" fill="#002652"/><path d="m76.009 9.573 19.469-2.488 1.419 11.102a9.526 9.526 0 0 1-8.242 10.657l-10.02 1.281z" fill="#002652"/><path d="m100.464 28.695.013-.002 4.58-.585c.041-.005.078.005.111.03s.052.059.057.1l.877 6.862c.011.086-.05.151-.129.168h-.001l-4.58.585c-.041.005-.078-.005-.111-.03s-.052-.059-.057-.1l-.877-6.862a.152.152 0 0 1 .117-.166m-.261-1.252a1.428 1.428 0 0 0-1.123 1.579l.877 6.862c.1.783.816 1.336 1.598 1.236l4.58-.585a1.429 1.429 0 0 0 1.236-1.599l-.877-6.862a1.429 1.429 0 0 0-1.598-1.236l-4.58.585a3.292 3.292 0 0 0-.113.02z" fill="#80b6f4"/><path d="M71.344 36.818c-.949-7.427-11.396-12.212-23.332-10.686-10.183 1.301-18.162 6.775-19.697 12.966-.397 1.603.989 3.093 2.627 2.884z" fill="#002652"/><path d="M80.583 45.24c-.883-6.906-10.595-11.354-21.693-9.935-9.468 1.21-16.886 6.299-18.313 12.055-.37 1.49.92 2.876 2.443 2.681z" fill="#002652"/><path d="M76.098 51.576c5.76-.736 6.537-8.72 1.045-10.607-2.991-1.027-6.504-1.403-10.178-.934-8.231 1.052-14.611 6.008-15.76 11.729-.298 1.481.849 2.885 2.173 2.716z" fill="#002652"/><path d="M79.758 56.667c4.244-.542 4.816-6.424.77-7.814-2.203-.757-4.791-1.034-7.498-.688-6.064.775-10.764 4.426-11.611 8.641-.219 1.091.625 2.125 1.601 2.001zm-4.315-32.858c-.949-7.427-11.396-12.212-23.332-10.686-10.183 1.301-18.162 6.775-19.697 12.966-.397 1.603.989 3.093 2.627 2.884z" fill="#002652"/><path d="M92.722 12.478C91.773 5.05 81.326.266 69.389 1.791 59.206 3.093 51.228 8.566 49.693 14.757c-.397 1.603.989 3.093 2.627 2.884z" fill="#002652"/><path d="M139.374 118.029H10.405L21.78 81.767c3.572-11.387 14.543-18.79 26.439-17.84l67.915 5.42c13.424 1.072 23.717 12.368 23.54 25.834z" fill="#2888ff"/><path d="m130.13 148.493-19.187-51.599 25.992-9.276 17.809 45.146c3.554 9.01-1.05 19.175-10.167 22.445-5.842 2.097-12.283-.898-14.447-6.716zm-103.34 1.244 15.575-35.373-25.505-11.229-15.687 35.627c-3.07 6.972.093 15.115 7.067 18.184 7.113 3.131 15.418-.096 18.55-7.209z" fill="#2888ff"/><path d="m157.314 233.343-.985 42.072-1.161 41.714-2.523.903-8.234 1.537c-1.948.367-4.016.752-5.921 1.117-1.079.2-2.099.395-3.026.572-2.377.45-4.092.784-4.312.839l-.061-.693-.175-1.965-1.389-15.441-12.615-69.091a51.146 51.146 0 0 1-1.12-11.614l.697-38.456 15.272-2.889c9.22-1.744 19.961 6.483 22.207 15.594l2.741 28.005a24.04 24.04 0 0 1 .605 7.796z" fill="#016eea"/><path d="M132.557 346.662h21.229c1.196 0 2.26-.652 2.645-1.624l2.148-5.42h-30.815l2.148 5.42c.385.971 1.449 1.624 2.645 1.624z" fill="#93c3ff"/><path d="M128.023 340.059h30.816l1.656-7.616a9.574 9.574 0 0 0-.868-6.466l-4.14-7.93h-25.07l-3.322 8.555a12.796 12.796 0 0 0-.494 7.699z" fill="#bedbff"/><path d="M97.779 119.179c.4 1.124-.115 2.521-1.336 3.336l-19.475 10.874-6.004-4.247 25.79-10.329a.76.76 0 0 1 1.018.349l.007.017z" fill="#ed956e"/><path d="M96.439 123.215c.588 1.038.321 2.503-.741 3.516l-17.31 14.067-6.646-3.148 23.624-14.619a.761.761 0 0 1 1.063.168l.01.016z" fill="#ed956e"/><path d="M94.699 127.376c.557 1.055.247 2.511-.845 3.493L76.137 144.42l-6.551-3.343L93.63 127.16a.76.76 0 0 1 1.057.199l.012.017z" fill="#ed956e"/><path d="M90.302 134.426c.557 1.055.247 2.511-.845 3.493L76.38 147.921a9.268 9.268 0 0 1-9.842.894l-1.348-.688 24.044-13.917a.76.76 0 0 1 1.057.199l.011.017z" fill="#ed956e"/><path d="m74.264 149.109-1.084-11.681c-1.458-3.762-5.73-5.648-9.492-4.19l-5.721 2.218c-3.762 1.458-10.281 8.944-8.822 12.706l13.606 2.862c1.634.344 3.326.296 4.938-.14z" fill="#ed956e"/><path d="m54.194 139.081 18.355-7.114-1.426.469a2.727 2.727 0 0 1-3.535-2.163l-.023-.046c-.143-.929.158-1.383.764-2.103l2.92-3.432a6.307 6.307 0 0 0 1.448-3.03c.112-.771.05-2.038-.193-2.666a2.18 2.18 0 0 0-.582-.863c-.037-.03-.073-.061-.112-.085a1.076 1.076 0 0 0-1.487.324l-8.575 10.889-2.567 2.083a12.762 12.762 0 0 0-3.66 4.753l-1.233 2.793a1.879 1.879 0 0 1-.094.191z" fill="#ed956e"/><path d="M72.949 148.869c6.018-2.333 9.148-8.737 6.991-14.304a10.175 10.175 0 0 0-.606-1.287c-.04-.071-.049-.246-.121-.21-.438.216-.948-.374-.447-.688.099-.062-.137-.189-.207-.282-1.201-1.576-2.837-2.761-4.7-3.472-.288-.11-.586-.4-.878-.295-3.862 1.383-5.312.682-4.454-.422.133-.172-.433.045-.65.077-.916.133-1.836.372-2.742.723-6.018 2.333-9.148 8.737-6.991 14.304 2.159 5.566 8.787 8.188 14.805 5.856z" fill="#ed956e"/><path d="m57.129 133.214-51.416-1.941-1.593 18.051c-.447 2.178.924 5.256 3.87 7.22l4.101 1.56c4.159 1.213 13.021.337 17.15-.793l28.646-7.506z" fill="#2888ff"/><g fill="#99644c"><path d="M231.931 119.179c.4 1.124-.115 2.521-1.336 3.336l-19.475 10.874-6.004-4.247 25.79-10.329a.76.76 0 0 1 1.018.349c.001.006.004.011.007.017z"/><path d="M230.59 123.215c.588 1.038.321 2.503-.741 3.516l-17.31 14.067-6.646-3.148 23.624-14.619a.761.761 0 0 1 1.063.168l.01.016z"/><path d="M228.85 127.376c.557 1.055.247 2.511-.845 3.493l-17.717 13.551-6.551-3.343 24.044-13.917a.76.76 0 0 1 1.057.199l.012.017z"/><path d="M224.454 134.426c.557 1.055.247 2.511-.845 3.493l-13.077 10.003a9.268 9.268 0 0 1-9.842.894l-1.348-.688 24.044-13.917a.76.76 0 0 1 1.057.199l.011.016z"/><path d="m208.415 149.109-1.084-11.681c-1.458-3.762-5.73-5.648-9.492-4.19l-5.721 2.218c-3.762 1.458-10.281 8.944-8.822 12.706l13.606 2.862c1.634.344 3.326.296 4.938-.14z"/><path d="m188.345 139.081 18.355-7.114-1.426.469a2.727 2.727 0 0 1-3.535-2.163l-.023-.046c-.143-.929.158-1.383.764-2.103l2.92-3.432a6.307 6.307 0 0 0 1.448-3.03c.112-.771.05-2.038-.193-2.666a2.18 2.18 0 0 0-.582-.863c-.037-.03-.073-.061-.112-.085a1.076 1.076 0 0 0-1.487.324l-8.575 10.889-2.567 2.083a12.762 12.762 0 0 0-3.66 4.753l-1.233 2.793a1.879 1.879 0 0 1-.094.191z"/><path d="M207.101 148.869c6.018-2.333 9.148-8.737 6.991-14.304a10.175 10.175 0 0 0-.606-1.287c-.04-.071-.049-.246-.121-.21-.438.216-.948-.374-.447-.688.099-.062-.137-.189-.207-.282-1.201-1.576-2.837-2.761-4.7-3.472-.288-.11-.586-.4-.878-.295-3.862 1.383-5.312.682-4.454-.422.133-.172-.433.045-.65.077-.916.133-1.836.372-2.742.723-6.018 2.333-9.148 8.737-6.991 14.304s8.786 8.188 14.805 5.856z"/></g><path d="m191.28 133.214-51.416-1.941-5.668 18.629c-.447 2.178 1.267 4.382 4.121 5.704 3.272 1.516 12.39 2.555 12.39 2.555 4.242.568 8.556.279 12.684-.85l28.646-7.506zm-64.085-58.913h-89.07v111.578l51.986-.483 15.316-1.124a21.537 21.537 0 0 0 15.045-7.785l6.723-8.161z" fill="#2888ff"/><path d="m126.977 141.035-9.378-28.561v28.677c0 3.418 4.132 5.13 6.549 2.713z" fill="#002652" opacity=".07"/><path d="M64.02 54.434h30a2.691 2.691 0 0 1 2.691 2.691v11.244a2.691 2.691 0 0 1-2.691 2.691h-30a2.691 2.691 0 0 1-2.691-2.691V57.125a2.692 2.692 0 0 1 2.691-2.691z" fill="#2888ff"/><path d="M85.203 347.955H63.974c-1.196 0-2.26-.652-2.645-1.624l-2.148-5.42h30.815l-2.148 5.42c-.386.971-1.45 1.624-2.645 1.624z" fill="#93c3ff"/><path d="M89.736 341.352H58.92l-1.656-7.615a9.573 9.573 0 0 1 .868-6.466l4.14-7.93h25.07l3.322 8.555a12.796 12.796 0 0 1 .494 7.699z" fill="#bedbff"/><path d="M115.602 213.101h18.994c2.279 0 3.42 2.755 1.809 4.366l-18.566 18.566z" fill="#002652" opacity=".2"/></svg></g><g transform="translate(307.0 246.0) rotate(0.0 63.5 134.5) scale(0.9924898992661827 0.9987116990350738)"><svg width="127.961" height="269.347" viewBox="0 0 127.961 269.347"><path d="M58.643 141.129h10.675v92.803H58.643z" fill="#013b84"/><path d="M5.955 254.025H.912v-11.432l1.628-.618c19.195-7.284 39.926-11.059 61.616-11.217l.037 5.043c-20.477.15-40.06 3.608-58.236 10.282v7.942z" fill="#002652"/><path d="M127.434 254.025h-5.043v-7.943c-18.177-6.673-37.76-10.132-58.237-10.282l.037-5.043c21.691.159 42.421 3.934 61.616 11.217l1.628.618v11.433z" fill="#002652"/><path d="M7.106 253.186H2.68a2.68 2.68 0 0 0-2.68 2.68v7.061h15.479l.01-1.291a8.383 8.383 0 0 0-8.383-8.45zm113.749 0h4.424c1.48 0 2.68 1.2 2.68 2.68v7.061H112.48l-.01-1.291a8.385 8.385 0 0 1 8.385-8.45z" fill="#013b84"/><g fill="#002652"><circle cx="121.118" cy="262.504" r="6.842"/><circle cx="6.842" cy="262.504" r="6.842"/><path d="m87.35 13.721-2.278-7.192C83.848 2.664 79.93 0 75.472 0h-22.97c-4.458 0-8.376 2.664-9.6 6.529l-2.278 7.192c-1.224 3.864-5.142 6.529-9.6 6.529h-.013c-5.128 0-9.249 3.808-9.123 8.429l1.105 40.382 12.51 69.287H92.47l12.414-68.469 1.188-41.189c.133-4.625-3.99-8.44-9.122-8.44-4.458 0-8.376-2.664-9.6-6.529z"/><path d="M107.486 132.152H20.475c-5.77 0-10.448 4.678-10.448 10.448v1.803h107.907V142.6c0-5.771-4.678-10.448-10.448-10.448z"/></g></svg></g><g transform="translate(84.0 344.0) rotate(0.0 87.0 89.5) scale(0.9969347122353683 0.9997933388070622)"><svg width="174.535" height="179.037" viewBox="0 0 174.535 179.037"><g fill="#eff0f2"><path d="M108.487 179.037h-36l-11-62h58z"/><path d="M88.517 140.817s-.44-1.395-1.109-3.852a250.368 250.368 0 0 1-2.558-10.212l-.761-3.306c-.272-1.2-.477-2.348-.724-3.586-.409-2.544-.796-5.203-.949-7.98-.183-2.775-.24-5.658-.084-8.581.117-2.925.435-5.888.909-8.824a74.189 74.189 0 0 1 1.919-8.661c.768-2.824 1.742-5.54 2.784-8.117 1.057-2.607 2.153-4.918 3.183-7.206l.774-1.671.378-.817.094-.202.037-.085.013-.025.025-.049.051-.098.206-.39a12.668 12.668 0 0 1 2.328-3.097 11.957 11.957 0 0 1 5.688-3.122c1.859-.457 3.587-.29 4.801-.129 2.531.279 3.978.497 3.978.497s-1.446.218-3.978.497c-1.306.11-2.705.316-4.216.956a10.807 10.807 0 0 0-4.145 3.227 9.573 9.573 0 0 0-1.396 2.522l-.272.775-.285.854-.583 1.746-2.523 7.354a103.74 103.74 0 0 0-2.255 7.821c-.662 2.688-1.25 5.44-1.673 8.219-.475 2.77-.791 5.566-1.009 8.326-.12 1.38-.177 2.753-.253 4.11-.031 1.357-.087 2.701-.078 4.024-.029 2.648.113 5.211.244 7.608l.594 6.964c.386 4.332.593 7.96.713 10.504.121 2.544.132 4.006.132 4.006z"/><path d="M92.524 139.46s.168-2.194.561-6.017c.201-1.91.43-4.233.753-6.886l1.051-8.892.27-2.498.191-2.556c.159-1.721.209-3.541.32-5.386.091-3.708.105-7.612-.122-11.639-.238-4.024-.577-8.174-1.22-12.352-.641-4.174-1.41-8.399-2.472-12.556a138.448 138.448 0 0 0-3.677-12.258c-1.44-3.933-3.035-7.908-4.503-11.738-1.486-3.829-2.861-7.555-4.176-11.084a535.875 535.875 0 0 1-3.634-9.975c-.558-1.525-1.058-3.14-1.663-4.178a12.003 12.003 0 0 0-2.389-3.068c-1.826-1.693-3.923-2.602-5.713-3.028-1.807-.41-3.307-.343-4.343-.326l-1.581.012 1.552-.298c.996-.171 2.526-.548 4.523-.371 1.968.181 4.446.811 6.769 2.527a14.165 14.165 0 0 1 3.226 3.266c1.045 1.478 1.542 2.883 2.273 4.373 1.395 2.978 2.9 6.207 4.431 9.648 1.547 3.434 3.19 7.05 4.825 10.818 1.637 3.773 3.357 7.612 4.954 11.751 1.564 4.113 2.868 8.396 3.976 12.727 1.078 4.34 1.866 8.749 2.42 13.111l.374 3.263.239 3.242c.095 1.073.114 2.144.159 3.206.037 1.062.086 2.115.068 3.162.072 4.184-.244 8.221-.588 12.026-.413 3.774-.962 7.441-1.667 10.627-.644 3.273-1.391 6.162-2 8.776-.606 2.603-1.188 4.864-1.653 6.727a257.283 257.283 0 0 1-1.534 5.844zm11.55-89.597c-13.321 10.893 6.733 19.441 16.123 20.716 10.068 1.367 21.468 2.268 31.487-.546 10.669-2.996 22.549-12.261 22.849-23.369-2.415 2.23-3.354 1.788-8.534 2.81-4.537.895-9.605-.283-13.715-1.679-3.504-1.19-7.412-3.287-11.097-4.526-4.35-1.463-26.347-2.21-37.113 6.594z"/><path d="M70.46 5.576c13.321 12.558-6.733 22.412-16.123 23.881-10.068 1.575-21.468 2.615-31.487-.629C12.181 25.374.301 14.694 0 1.888c18.308 6.077 33.874 3.129 37.559 1.701C41.91 1.904 59.695-4.572 70.46 5.576z"/></g></svg></g><g transform="translate(224.0 307.0) rotate(0.0 22.0 35.0) scale(0.9776257026684738 0.9694485222834667)"><svg width="45.007" height="72.206" viewBox="0 0 45.007 72.206"><g fill="#013b84"><path d="M16.269 0h-.912C6.876 0 0 6.876 0 15.357v1.775h31.626v-1.775C31.626 6.876 24.751 0 16.269 0z"/><path d="M35.663 72.186c-4.642-.312-8.145-4.381-8.145-9.034V14.41h2v48.818c0 3.428 2.458 6.486 5.858 6.921a6.753 6.753 0 0 0 7.631-6.688V16.853a1 1 0 0 1 2 0v46.608c0 5.021-4.252 9.067-9.344 8.725z"/></g></svg></g></svg>